<svg id="svg" version="1.1" width="400" height="402.22222222222223" viewBox="0 0 400 402.22222222222223" xmlns="http://www.w3.org/2000/svg" xmlns:xlink="http://www.w3.org/1999/xlink" ><g id="svgg"><path id="path0" d="M176.600 46.232 C 174.620 46.531,172.015 46.883,170.810 47.014 C 169.606 47.144,168.399 47.435,168.128 47.660 C 167.857 47.885,167.454 47.957,167.234 47.821 C 167.013 47.684,166.510 47.749,166.116 47.965 C 165.722 48.180,162.520 49.009,159.000 49.806 C 155.480 50.604,152.443 51.410,152.251 51.597 C 152.059 51.784,151.625 51.831,151.286 51.701 C 150.881 51.545,150.768 51.625,150.958 51.932 C 151.123 52.199,151.022 52.398,150.724 52.395 C 150.436 52.393,148.349 52.970,146.087 53.679 L 141.973 54.967 142.218 56.183 C 142.353 56.853,142.809 57.888,143.232 58.484 C 143.654 59.080,144.000 59.679,144.000 59.816 C 144.000 60.089,145.792 64.819,146.495 66.400 C 146.740 66.950,146.908 67.535,146.870 67.700 C 146.831 67.865,146.980 68.000,147.200 68.000 C 147.420 68.000,147.571 68.135,147.535 68.300 C 147.340 69.191,149.251 72.466,149.834 72.242 C 151.009 71.791,157.392 69.936,160.000 69.288 C 161.430 68.933,162.690 68.526,162.800 68.386 C 163.268 67.786,175.094 65.496,180.500 64.958 C 183.078 64.702,183.200 64.642,183.194 63.645 C 183.180 61.078,182.012 46.342,181.794 45.991 C 181.504 45.521,181.209 45.535,176.600 46.232 M242.963 51.660 C 242.852 51.840,242.070 54.735,241.225 58.093 C 240.380 61.452,239.388 65.066,239.020 66.125 C 237.899 69.353,238.074 69.602,242.400 70.925 C 244.490 71.565,246.310 72.264,246.445 72.478 C 246.579 72.693,246.811 72.836,246.960 72.797 C 247.108 72.757,247.988 73.042,248.915 73.428 C 249.842 73.815,250.802 74.173,251.049 74.223 C 252.636 74.546,265.200 80.870,265.200 81.345 C 265.200 81.559,265.308 81.626,265.439 81.494 C 265.570 81.363,266.564 81.801,267.647 82.467 C 269.807 83.796,270.570 83.742,271.268 82.211 C 271.521 81.655,271.880 81.200,272.064 81.200 C 272.249 81.200,272.400 80.930,272.400 80.600 C 272.400 80.270,272.542 80.000,272.715 80.000 C 272.889 80.000,273.650 78.965,274.408 77.700 C 275.165 76.435,276.103 75.165,276.492 74.877 C 276.881 74.590,277.200 74.140,277.201 73.877 C 277.201 73.615,277.921 72.363,278.801 71.096 C 280.388 68.809,280.793 67.600,279.973 67.600 C 279.739 67.600,278.974 67.168,278.273 66.639 C 277.573 66.111,276.286 65.384,275.414 65.024 C 274.542 64.664,273.732 64.236,273.614 64.074 C 273.496 63.912,271.780 62.985,269.800 62.015 C 267.820 61.044,266.140 60.104,266.067 59.925 C 265.993 59.746,265.661 59.600,265.328 59.600 C 264.996 59.600,264.246 59.346,263.662 59.036 C 262.383 58.357,259.754 57.200,259.488 57.200 C 259.384 57.200,258.601 56.896,257.749 56.524 C 256.897 56.153,256.110 55.831,256.000 55.810 C 255.890 55.789,255.379 55.538,254.865 55.253 C 253.761 54.641,246.904 52.400,246.133 52.400 C 245.840 52.400,245.600 52.240,245.600 52.045 C 245.600 51.582,243.226 51.235,242.963 51.660 M127.800 61.572 C 120.370 65.396,117.842 66.809,116.978 67.620 C 116.522 68.049,116.016 68.400,115.855 68.400 C 115.694 68.400,114.577 69.030,113.373 69.800 C 112.169 70.570,111.008 71.200,110.792 71.200 C 110.577 71.200,110.400 71.358,110.400 71.552 C 110.400 71.746,109.095 72.779,107.500 73.848 C 105.905 74.917,104.365 76.108,104.077 76.496 C 103.790 76.883,103.335 77.200,103.066 77.200 C 102.798 77.200,102.293 77.515,101.945 77.900 C 101.597 78.285,100.567 79.226,99.656 79.991 C 97.644 81.681,97.628 81.894,99.400 83.372 C 100.170 84.014,100.800 84.716,100.800 84.933 C 100.800 85.150,101.655 86.181,102.700 87.224 C 103.745 88.267,105.847 90.489,107.371 92.161 C 110.670 95.779,110.266 95.719,113.555 93.069 C 115.010 91.897,116.830 90.519,117.600 90.007 C 118.370 89.495,119.180 88.869,119.400 88.616 C 119.620 88.363,120.970 87.446,122.400 86.578 C 123.830 85.711,125.193 84.821,125.429 84.601 C 125.666 84.380,126.566 83.840,127.429 83.400 C 128.293 82.960,129.090 82.508,129.200 82.396 C 129.310 82.284,130.120 81.834,131.000 81.396 C 131.880 80.958,132.697 80.471,132.816 80.313 C 132.934 80.155,134.429 79.380,136.136 78.591 C 137.844 77.802,139.337 76.909,139.453 76.607 C 139.687 75.995,136.893 68.677,136.344 68.466 C 136.152 68.392,136.097 68.167,136.221 67.966 C 136.345 67.765,136.294 67.600,136.106 67.600 C 135.919 67.600,135.256 66.099,134.634 64.265 C 132.782 58.811,133.000 58.896,127.800 61.572 M193.353 76.046 C 193.476 77.231,193.666 79.640,193.774 81.400 C 193.881 83.160,194.088 86.175,194.232 88.100 L 194.495 91.600 199.147 91.613 C 204.471 91.629,211.532 92.197,213.358 92.757 C 214.041 92.967,215.590 93.246,216.800 93.378 C 218.010 93.510,219.750 93.767,220.666 93.949 L 222.333 94.280 222.983 91.640 C 223.341 90.188,223.880 88.460,224.182 87.800 C 224.483 87.140,224.834 85.970,224.960 85.200 C 225.087 84.430,225.551 82.360,225.991 80.600 C 226.431 78.840,226.793 77.286,226.795 77.146 C 226.798 77.006,225.765 76.764,224.500 76.608 C 223.235 76.451,222.017 76.173,221.794 75.990 C 220.835 75.206,211.703 74.305,202.664 74.104 L 193.129 73.892 193.353 76.046 M287.567 76.045 C 286.815 77.170,285.819 78.733,285.354 79.520 C 284.889 80.307,284.124 81.382,283.654 81.909 C 283.184 82.436,282.800 83.033,282.800 83.234 C 282.800 83.435,282.590 83.600,282.333 83.600 C 282.077 83.600,281.970 83.703,282.096 83.829 C 282.222 83.955,281.532 85.217,280.563 86.633 C 278.462 89.702,278.476 89.545,280.173 90.800 C 283.426 93.206,289.413 98.256,292.276 101.010 C 293.986 102.654,295.503 104.000,295.646 104.000 C 295.790 104.000,296.198 104.443,296.553 104.984 C 296.907 105.525,297.891 106.650,298.739 107.484 C 299.586 108.318,301.027 109.961,301.940 111.136 C 302.853 112.311,303.603 113.121,303.606 112.936 C 303.609 112.751,303.782 112.869,303.990 113.198 C 304.315 113.711,304.454 113.683,304.971 112.998 C 305.303 112.559,305.580 112.314,305.587 112.454 C 305.594 112.594,306.265 112.099,307.078 111.354 C 307.891 110.609,308.714 110.000,308.907 110.000 C 309.099 110.000,309.508 109.775,309.815 109.500 C 310.912 108.516,311.716 107.864,313.545 106.480 C 314.565 105.707,315.528 104.878,315.685 104.637 C 315.842 104.397,316.117 104.200,316.295 104.200 C 316.843 104.200,318.800 102.512,318.800 102.039 C 318.800 101.528,316.392 98.096,316.247 98.400 C 316.194 98.510,315.532 97.881,314.776 97.003 C 311.666 93.393,310.451 92.111,307.406 89.226 C 305.650 87.562,303.354 85.345,302.305 84.300 C 301.256 83.255,300.306 82.400,300.195 82.400 C 300.001 82.400,298.709 81.303,296.461 79.231 C 295.882 78.698,294.681 77.798,293.791 77.231 C 292.901 76.664,291.640 75.705,290.990 75.100 C 289.394 73.614,289.147 73.683,287.567 76.045 M87.572 90.908 C 84.707 93.689,81.528 97.155,78.684 100.600 C 77.413 102.140,76.010 103.830,75.568 104.355 C 75.125 104.880,74.202 106.140,73.515 107.155 C 72.829 108.170,72.021 109.270,71.720 109.600 C 70.803 110.604,68.000 114.812,68.000 115.184 C 68.000 115.376,67.865 115.593,67.700 115.667 C 67.079 115.943,64.800 119.655,64.800 120.390 C 64.800 120.964,65.705 121.581,68.400 122.844 C 70.380 123.771,72.000 124.711,72.000 124.932 C 72.000 125.153,72.115 125.219,72.255 125.078 C 72.395 124.938,72.980 125.157,73.555 125.564 C 76.377 127.564,81.600 129.874,81.600 129.123 C 81.600 128.899,82.140 127.916,82.800 126.938 C 83.460 125.960,84.000 124.989,84.000 124.780 C 84.000 124.571,84.175 124.400,84.390 124.400 C 84.604 124.400,85.060 123.905,85.402 123.300 C 87.739 119.169,92.903 112.829,99.556 105.919 L 102.912 102.433 101.752 101.117 C 101.114 100.393,100.112 99.260,99.525 98.600 C 97.237 96.029,96.800 95.463,96.800 95.072 C 96.800 94.849,96.693 94.774,96.562 94.904 C 96.432 95.035,95.526 94.210,94.550 93.071 C 90.244 88.047,90.454 88.112,87.572 90.908 M300.500 128.008 C 300.127 128.444,299.677 128.800,299.499 128.800 C 299.199 128.800,295.763 131.317,294.400 132.535 C 294.070 132.830,293.176 133.505,292.412 134.035 C 291.649 134.566,290.479 135.494,289.812 136.098 C 289.146 136.702,288.465 137.197,288.300 137.198 C 287.413 137.204,288.954 140.753,291.018 143.459 C 291.572 144.186,292.033 144.920,292.041 145.090 C 292.050 145.261,292.269 145.670,292.529 146.000 C 292.788 146.330,293.196 146.960,293.436 147.400 C 293.676 147.840,294.321 149.010,294.870 150.000 C 295.420 150.990,296.370 152.970,296.982 154.400 C 299.406 160.065,300.625 162.392,301.172 162.396 C 301.839 162.401,304.508 161.507,304.800 161.181 C 304.910 161.058,307.610 160.186,310.800 159.242 C 317.627 157.222,317.794 157.113,316.936 155.200 C 316.088 153.310,315.377 151.679,314.668 150.000 C 314.342 149.230,313.761 147.880,313.376 147.000 C 312.991 146.120,312.709 145.252,312.748 145.070 C 312.788 144.889,312.671 144.833,312.488 144.946 C 312.306 145.058,311.638 143.947,311.004 142.475 C 310.371 141.004,309.396 139.080,308.839 138.200 C 308.282 137.320,307.515 136.033,307.134 135.340 C 306.753 134.648,305.757 133.054,304.921 131.798 C 304.084 130.543,303.130 129.087,302.801 128.562 C 301.970 127.243,301.295 127.080,300.500 128.008 M59.287 129.946 C 59.044 130.096,58.182 131.880,57.372 133.909 C 56.561 135.939,55.740 137.600,55.549 137.600 C 55.357 137.600,55.200 137.924,55.200 138.320 C 55.200 138.716,55.045 139.211,54.856 139.420 C 54.667 139.629,54.006 141.240,53.387 143.000 C 52.768 144.760,52.083 146.650,51.864 147.200 C 51.646 147.750,51.437 148.290,51.400 148.400 C 51.363 148.510,51.106 149.140,50.829 149.800 C 50.333 150.982,49.216 154.879,48.364 158.400 C 48.125 159.390,47.825 160.470,47.699 160.800 C 47.573 161.130,47.438 161.490,47.400 161.600 C 47.362 161.710,47.216 162.070,47.076 162.400 C 46.684 163.324,46.021 166.495,46.010 167.500 C 46.002 168.196,46.227 168.400,47.000 168.400 C 47.550 168.400,48.000 168.555,48.000 168.745 C 48.000 168.935,48.630 169.020,49.400 168.935 C 50.170 168.851,50.800 168.954,50.800 169.166 C 50.800 169.377,51.115 169.543,51.500 169.533 C 51.885 169.524,54.888 169.989,58.173 170.565 C 65.142 171.789,64.415 172.186,65.789 166.400 C 66.913 161.663,68.043 157.900,68.972 155.800 C 69.264 155.140,70.080 152.845,70.785 150.700 C 71.489 148.555,72.231 146.800,72.433 146.800 C 72.635 146.800,72.800 146.602,72.800 146.360 C 72.800 145.941,73.186 145.003,74.853 141.374 C 75.997 138.882,75.848 138.262,73.900 137.411 C 72.965 137.003,71.643 136.248,70.962 135.734 C 70.281 135.220,69.623 134.800,69.499 134.800 C 69.376 134.800,67.377 133.743,65.059 132.451 C 60.118 129.698,59.866 129.589,59.287 129.946 M345.200 157.202 C 344.650 157.388,342.850 157.930,341.200 158.407 C 339.550 158.884,337.750 159.468,337.200 159.707 C 336.650 159.945,336.065 160.108,335.900 160.070 C 335.735 160.031,335.600 160.180,335.600 160.400 C 335.600 160.620,335.337 160.800,335.016 160.800 C 334.695 160.800,333.420 161.111,332.184 161.492 L 329.937 162.184 330.207 163.992 C 330.356 164.986,330.590 165.980,330.728 166.200 C 330.985 166.612,331.155 167.299,331.289 168.472 C 331.331 168.842,331.471 169.080,331.600 169.000 C 331.920 168.802,333.050 175.056,334.032 182.461 C 336.010 197.378,334.498 226.131,331.375 233.000 C 331.075 233.660,330.750 234.650,330.652 235.200 C 330.554 235.750,330.164 237.421,329.785 238.914 C 329.406 240.407,329.164 241.682,329.248 241.747 C 329.331 241.811,331.560 242.556,334.200 243.401 C 336.840 244.246,339.110 245.102,339.245 245.303 C 339.379 245.504,339.604 245.653,339.745 245.634 C 339.885 245.615,340.045 245.614,340.100 245.631 C 340.155 245.647,340.470 245.725,340.800 245.802 C 341.130 245.880,342.431 246.316,343.690 246.771 C 346.804 247.898,347.064 247.851,347.391 246.100 C 347.545 245.275,347.816 244.420,347.993 244.200 C 348.662 243.366,351.600 230.290,351.600 228.144 C 351.600 227.651,351.791 227.129,352.024 226.985 C 352.257 226.841,352.417 226.336,352.379 225.862 C 352.342 225.388,352.349 224.910,352.395 224.800 C 352.442 224.690,352.534 224.150,352.601 223.600 C 352.668 223.050,352.829 221.880,352.960 221.000 C 354.361 211.584,354.618 191.319,353.430 184.000 C 353.340 183.450,353.145 181.591,352.996 179.868 C 352.848 178.145,352.555 176.165,352.346 175.468 C 352.137 174.771,351.625 172.400,351.209 170.200 C 348.731 157.103,348.293 156.155,345.200 157.202 M74.812 183.369 C 73.659 186.401,73.437 214.770,74.557 215.890 C 74.689 216.022,85.533 214.529,90.094 213.752 C 92.167 213.399,92.398 212.977,91.929 210.403 C 91.326 207.097,91.825 187.641,92.530 186.936 C 93.229 186.238,92.745 185.366,91.612 185.280 C 90.958 185.230,89.953 185.010,89.378 184.792 C 88.803 184.573,88.180 184.489,87.994 184.604 C 87.808 184.719,87.538 184.623,87.394 184.390 C 87.250 184.158,86.803 184.072,86.400 184.200 C 85.997 184.328,85.563 184.263,85.435 184.056 C 85.307 183.849,84.617 183.675,83.901 183.668 C 83.186 183.661,81.283 183.373,79.674 183.028 C 75.751 182.186,75.248 182.221,74.812 183.369 M61.967 226.956 C 61.875 227.042,60.720 227.227,59.400 227.367 C 57.016 227.620,56.286 227.733,53.600 228.262 C 52.830 228.414,51.711 228.533,51.112 228.527 C 50.514 228.521,50.107 228.649,50.207 228.812 C 50.308 228.975,49.222 229.233,47.795 229.386 C 46.368 229.539,45.200 229.706,45.200 229.758 C 45.200 230.958,47.088 239.480,47.602 240.600 C 47.804 241.040,48.437 243.200,49.008 245.400 C 49.580 247.600,50.154 249.670,50.284 250.000 C 50.414 250.330,50.564 250.802,50.618 251.049 C 50.671 251.296,50.982 252.106,51.310 252.849 C 51.637 253.592,52.483 255.730,53.190 257.600 C 53.897 259.470,55.178 262.467,56.038 264.261 C 56.897 266.054,57.600 267.719,57.600 267.961 C 57.600 268.903,60.384 268.031,62.900 266.302 C 63.505 265.886,64.000 265.676,64.000 265.835 C 64.000 265.994,64.315 265.841,64.700 265.495 C 65.085 265.149,66.795 264.231,68.500 263.455 C 70.205 262.680,71.600 261.875,71.600 261.666 C 71.600 261.457,72.005 261.185,72.500 261.061 C 75.171 260.390,75.165 260.013,72.397 254.200 C 70.818 250.887,68.800 245.394,68.800 244.413 C 68.800 243.966,68.640 243.600,68.446 243.600 C 68.072 243.600,65.977 236.283,65.181 232.200 C 64.924 230.880,64.554 229.603,64.360 229.363 C 64.166 229.123,64.110 228.823,64.236 228.697 C 64.971 227.962,62.729 226.242,61.967 226.956 M296.819 241.851 C 296.368 242.869,296.000 243.938,296.000 244.227 C 296.000 244.516,295.811 244.870,295.579 245.013 C 295.347 245.156,294.421 246.825,293.519 248.722 C 292.618 250.619,291.278 253.114,290.540 254.266 C 289.803 255.419,289.200 256.518,289.200 256.709 C 289.200 256.900,288.556 257.808,287.769 258.728 C 286.982 259.648,286.457 260.400,286.603 260.400 C 286.750 260.400,286.314 261.155,285.635 262.079 C 283.913 264.420,284.020 264.642,288.300 267.645 C 289.235 268.302,290.000 269.010,290.000 269.219 C 290.000 269.429,290.196 269.600,290.436 269.600 C 290.676 269.600,291.821 270.410,292.979 271.400 C 294.138 272.390,295.210 273.200,295.361 273.200 C 295.513 273.200,296.086 273.650,296.636 274.200 C 297.940 275.503,298.169 275.468,299.200 273.800 C 299.676 273.030,300.200 272.400,300.365 272.400 C 300.530 272.400,300.914 271.905,301.219 271.300 C 301.523 270.695,302.590 268.940,303.590 267.400 C 304.589 265.860,305.935 263.610,306.580 262.400 C 307.225 261.190,307.990 259.960,308.280 259.668 C 308.570 259.375,308.715 258.985,308.601 258.802 C 308.488 258.618,308.534 258.408,308.704 258.334 C 308.873 258.260,309.625 256.850,310.374 255.200 C 311.123 253.550,311.858 252.110,312.009 252.000 C 312.248 251.825,313.686 248.219,314.271 246.326 C 314.432 245.807,314.147 245.589,313.040 245.381 C 312.248 245.233,311.600 244.951,311.600 244.755 C 311.600 244.560,311.465 244.429,311.300 244.464 C 311.135 244.498,310.730 244.410,310.400 244.267 C 310.070 244.124,308.180 243.484,306.200 242.844 C 304.220 242.205,302.060 241.454,301.400 241.175 C 300.740 240.895,300.080 240.652,299.933 240.634 C 299.787 240.615,299.532 240.465,299.367 240.300 C 298.567 239.500,297.598 240.090,296.819 241.851 M102.198 255.495 C 101.539 255.837,100.910 256.236,100.800 256.382 C 100.501 256.779,94.247 259.765,93.900 259.676 C 93.735 259.634,93.600 259.791,93.600 260.024 C 93.600 260.257,93.440 260.349,93.245 260.228 C 93.050 260.107,92.666 260.279,92.392 260.609 C 92.118 260.939,91.108 261.557,90.147 261.982 C 89.186 262.407,88.400 262.950,88.400 263.188 C 88.400 263.889,91.290 269.200,91.671 269.200 C 91.863 269.200,92.175 269.605,92.364 270.100 C 92.770 271.163,97.349 277.546,99.263 279.716 C 99.998 280.550,100.673 281.444,100.762 281.703 C 100.851 281.962,101.751 283.023,102.762 284.062 C 103.773 285.101,105.484 286.883,106.564 288.022 L 108.527 290.093 112.681 285.747 C 114.965 283.356,117.719 280.365,118.799 279.101 L 120.764 276.801 118.984 275.101 C 118.004 274.165,117.202 273.286,117.202 273.147 C 117.201 273.008,116.525 272.183,115.700 271.314 C 114.021 269.545,112.392 267.600,112.591 267.600 C 112.662 267.600,112.187 267.028,111.534 266.330 C 110.882 265.631,110.063 264.506,109.715 263.830 C 109.367 263.153,108.748 262.309,108.341 261.953 C 107.933 261.597,107.600 261.186,107.600 261.040 C 107.600 260.709,104.029 255.265,103.664 255.039 C 103.517 254.949,102.858 255.154,102.198 255.495 M300.252 291.935 C 297.775 295.062,288.024 304.400,287.236 304.400 C 286.996 304.400,286.800 304.574,286.800 304.787 C 286.800 305.000,285.765 305.945,284.500 306.887 C 283.235 307.829,282.020 308.801,281.800 309.046 C 281.580 309.292,280.365 310.243,279.100 311.159 C 276.454 313.076,276.368 313.443,278.000 315.862 C 278.660 316.840,279.200 317.796,279.200 317.987 C 279.200 318.177,279.335 318.393,279.500 318.467 C 279.925 318.655,282.000 321.902,282.000 322.378 C 282.000 322.595,282.540 323.387,283.200 324.139 C 283.860 324.891,284.405 325.662,284.411 325.853 C 284.483 328.181,287.236 329.026,289.116 327.297 C 289.416 327.021,290.053 326.587,290.531 326.334 C 291.009 326.080,291.635 325.542,291.923 325.137 C 292.210 324.731,292.613 324.400,292.818 324.400 C 293.227 324.400,293.631 324.090,297.638 320.700 C 299.133 319.435,300.432 318.400,300.524 318.400 C 300.616 318.400,301.580 317.545,302.665 316.500 C 303.751 315.455,305.800 313.501,307.219 312.157 C 308.639 310.814,311.150 308.220,312.800 306.393 C 314.450 304.567,316.138 302.751,316.551 302.359 C 317.413 301.540,317.366 301.472,314.400 299.225 C 313.410 298.475,312.197 297.452,311.705 296.953 C 311.212 296.453,309.952 295.461,308.905 294.749 C 307.857 294.036,306.901 293.309,306.781 293.134 C 306.402 292.582,302.622 290.000,302.193 290.000 C 301.968 290.000,301.095 290.871,300.252 291.935 M251.040 295.675 C 250.182 296.108,249.244 296.699,248.955 296.988 C 248.666 297.277,247.028 298.092,245.315 298.799 C 243.602 299.506,241.570 300.412,240.800 300.812 C 239.219 301.632,234.978 303.190,231.400 304.265 C 227.714 305.372,227.800 305.017,229.412 312.471 C 231.293 321.165,231.889 322.843,232.999 322.565 C 233.465 322.447,234.106 322.312,234.424 322.265 C 234.741 322.217,235.214 322.044,235.475 321.880 C 235.737 321.717,238.204 320.863,240.957 319.983 C 243.711 319.102,246.074 318.203,246.210 317.984 C 246.345 317.766,246.623 317.691,246.828 317.817 C 247.032 317.944,247.200 317.876,247.200 317.667 C 247.200 317.458,247.695 317.168,248.300 317.023 C 250.063 316.600,262.452 310.329,262.676 309.747 C 262.852 309.288,260.756 305.358,260.038 304.800 C 259.896 304.690,259.335 303.741,258.790 302.690 C 258.246 301.640,257.316 300.212,256.725 299.516 C 256.134 298.821,255.250 297.476,254.762 296.526 C 253.775 294.606,253.349 294.509,251.040 295.675 M102.143 310.227 C 94.892 317.826,95.208 317.300,96.938 318.909 C 100.122 321.871,101.191 322.800,101.413 322.800 C 101.670 322.800,104.871 325.229,105.214 325.685 C 105.332 325.841,106.592 326.719,108.014 327.635 C 109.436 328.552,110.690 329.414,110.800 329.552 C 111.063 329.881,115.533 332.800,115.774 332.800 C 115.876 332.800,116.758 333.339,117.733 333.997 C 118.708 334.655,120.562 335.748,121.853 336.427 C 123.144 337.105,124.490 337.922,124.845 338.243 C 125.200 338.563,125.897 338.903,126.395 338.999 C 126.893 339.095,127.739 339.461,128.277 339.813 C 129.289 340.477,130.400 340.079,130.400 339.055 C 130.400 338.808,131.014 337.345,131.765 335.804 C 133.196 332.862,134.309 330.345,135.214 328.000 C 135.511 327.230,136.080 326.010,136.477 325.288 C 137.513 323.407,137.400 323.104,135.291 322.105 C 134.251 321.613,132.770 320.831,132.000 320.366 C 131.230 319.902,129.880 319.137,129.000 318.666 C 128.120 318.196,126.870 317.386,126.223 316.866 C 125.575 316.346,124.675 315.751,124.223 315.543 C 122.752 314.868,121.568 314.119,120.122 312.948 C 119.341 312.317,117.959 311.309,117.051 310.710 C 116.143 310.110,114.911 309.159,114.313 308.597 C 113.714 308.035,113.084 307.540,112.913 307.498 C 112.553 307.409,111.071 306.209,109.703 304.900 C 108.361 303.614,108.638 303.419,102.143 310.227 M146.141 328.268 C 146.000 328.671,145.460 329.950,144.942 331.112 C 144.424 332.273,143.996 333.443,143.991 333.712 C 143.986 333.980,143.630 334.650,143.200 335.200 C 142.770 335.750,142.414 336.347,142.409 336.526 C 142.404 336.705,141.950 337.835,141.400 339.037 C 140.850 340.240,140.400 341.374,140.400 341.558 C 140.400 341.742,140.038 342.352,139.596 342.914 C 138.741 344.001,139.267 345.200,140.600 345.200 C 140.899 345.200,141.458 345.515,141.843 345.900 C 142.228 346.285,142.608 346.536,142.689 346.459 C 142.769 346.381,143.322 346.504,143.917 346.733 C 148.107 348.341,158.700 351.395,163.200 352.291 C 166.170 352.883,168.690 353.464,168.800 353.584 C 168.910 353.703,169.180 353.828,169.400 353.863 C 174.953 354.736,176.316 354.860,176.531 354.511 C 176.648 354.322,176.864 352.735,177.012 350.984 C 177.159 349.233,177.504 345.280,177.779 342.200 C 178.400 335.226,178.823 335.887,173.213 335.067 C 170.593 334.685,167.493 334.075,166.324 333.712 C 163.703 332.898,164.027 332.992,162.600 332.631 C 158.163 331.507,151.555 329.401,150.043 328.629 C 148.040 327.606,146.427 327.457,146.141 328.268 M222.400 335.235 C 220.316 335.653,212.344 336.718,209.267 336.990 C 208.110 337.092,206.964 337.299,206.720 337.449 C 206.461 337.610,206.389 337.542,206.546 337.288 C 206.732 336.987,206.471 336.947,205.708 337.158 C 204.421 337.513,190.453 337.398,189.268 337.022 C 188.514 336.782,188.454 337.013,188.183 341.184 C 188.026 343.613,187.785 345.601,187.649 345.601 C 187.512 345.602,187.361 346.277,187.312 347.101 C 187.264 347.926,187.076 350.187,186.894 352.127 C 186.712 354.066,186.687 355.730,186.839 355.824 C 188.104 356.606,210.286 356.294,216.400 355.408 C 217.533 355.244,221.392 354.726,222.600 354.575 C 223.437 354.471,225.375 354.111,226.400 353.870 C 226.730 353.792,227.675 353.590,228.500 353.420 C 229.325 353.250,230.000 352.996,230.000 352.855 C 229.999 352.317,228.765 346.571,228.527 346.000 C 228.390 345.670,228.250 345.220,228.216 345.000 C 228.182 344.780,228.034 344.330,227.887 344.000 C 227.739 343.670,227.206 341.510,226.702 339.200 C 225.680 334.524,225.727 334.567,222.400 335.235 " stroke="none" fill="#84d4f4" fill-rule="evenodd"></path><path id="path1" d="M173.967 0.149 C 173.875 0.231,172.720 0.410,171.400 0.545 C 170.080 0.680,167.830 0.979,166.400 1.208 C 164.970 1.438,163.260 1.704,162.600 1.801 C 160.355 2.128,158.202 2.494,157.400 2.685 C 156.960 2.789,156.285 2.869,155.900 2.862 C 155.515 2.855,155.200 2.994,155.200 3.170 C 155.200 3.346,154.749 3.440,154.198 3.380 C 153.647 3.320,153.298 3.434,153.422 3.635 C 153.546 3.836,153.232 4.004,152.724 4.009 C 152.216 4.015,150.450 4.388,148.800 4.838 C 147.150 5.289,145.530 5.721,145.200 5.798 C 144.870 5.876,144.510 5.980,144.400 6.030 C 144.158 6.141,143.882 6.199,141.700 6.594 C 140.765 6.764,140.000 7.067,140.000 7.269 C 140.000 7.470,139.775 7.598,139.500 7.553 C 139.225 7.508,138.493 7.681,137.874 7.936 C 137.255 8.191,136.507 8.400,136.213 8.400 C 135.461 8.400,127.751 11.088,125.686 12.070 C 123.767 12.982,123.768 12.971,125.455 16.674 C 125.975 17.815,126.400 19.030,126.400 19.374 C 126.400 19.718,126.599 20.000,126.843 20.000 C 127.086 20.000,127.187 20.257,127.067 20.571 C 126.946 20.885,127.107 21.357,127.424 21.620 C 127.741 21.883,128.000 22.267,128.000 22.474 C 128.000 22.680,128.430 23.783,128.955 24.925 C 129.480 26.066,130.029 27.517,130.175 28.148 C 130.320 28.780,130.702 29.559,131.023 29.881 C 131.345 30.202,131.501 30.637,131.370 30.848 C 131.092 31.298,132.997 30.904,134.200 30.263 C 134.640 30.028,135.436 29.773,135.969 29.695 C 136.502 29.618,137.312 29.347,137.769 29.093 C 138.226 28.840,138.825 28.678,139.100 28.734 C 139.375 28.789,139.600 28.667,139.600 28.461 C 139.600 28.255,140.095 27.969,140.700 27.825 C 141.966 27.524,147.109 26.023,148.000 25.694 C 148.330 25.572,148.740 25.503,148.912 25.541 C 149.084 25.578,149.714 25.370,150.312 25.078 C 150.910 24.787,151.670 24.571,152.000 24.599 C 152.330 24.626,152.817 24.488,153.082 24.290 C 153.348 24.093,153.740 24.040,153.955 24.172 C 154.169 24.305,154.442 24.256,154.561 24.064 C 154.679 23.872,155.907 23.497,157.288 23.230 C 158.670 22.964,160.520 22.570,161.400 22.353 C 162.280 22.137,163.900 21.871,165.000 21.761 C 166.100 21.651,167.492 21.369,168.093 21.135 C 168.694 20.901,169.468 20.817,169.814 20.950 C 170.189 21.094,170.339 21.025,170.187 20.779 C 170.025 20.517,170.292 20.458,170.923 20.616 C 171.473 20.755,172.031 20.673,172.180 20.432 C 172.327 20.195,172.662 20.003,172.924 20.006 C 173.210 20.010,173.161 20.167,172.800 20.400 C 172.470 20.613,172.395 20.791,172.633 20.794 C 172.872 20.797,173.190 20.677,173.340 20.526 C 173.491 20.376,174.106 20.200,174.707 20.137 C 175.958 20.005,178.148 19.652,179.579 19.351 C 180.129 19.235,180.370 19.026,180.129 18.873 C 179.882 18.716,179.592 16.390,179.448 13.400 C 179.154 7.348,178.753 2.077,178.451 0.300 C 178.400 0.002,174.285 -0.136,173.967 0.149 M254.369 7.585 C 254.353 7.923,254.259 8.560,254.161 9.000 C 254.063 9.440,253.920 10.160,253.844 10.600 C 253.768 11.040,253.613 11.670,253.500 12.000 C 253.387 12.330,253.076 13.410,252.809 14.400 C 252.541 15.390,251.969 17.325,251.537 18.699 C 251.105 20.074,250.863 21.379,251.000 21.599 C 251.136 21.820,251.037 22.000,250.781 22.000 C 250.524 22.000,250.416 22.264,250.540 22.587 C 250.664 22.910,250.577 23.290,250.348 23.432 C 250.118 23.574,250.019 24.030,250.128 24.445 C 250.236 24.860,250.162 25.300,249.962 25.423 C 249.438 25.747,249.518 26.260,250.100 26.310 C 250.662 26.358,251.044 26.452,253.600 27.172 C 254.590 27.450,255.597 27.839,255.837 28.036 C 256.077 28.232,256.388 28.279,256.527 28.140 C 256.667 28.000,257.073 28.129,257.431 28.425 C 257.788 28.722,258.288 29.015,258.540 29.075 C 258.793 29.136,259.540 29.306,260.200 29.452 C 260.860 29.599,261.490 29.849,261.600 30.007 C 261.710 30.165,262.880 30.604,264.200 30.982 C 265.520 31.361,267.140 31.991,267.800 32.381 C 268.460 32.772,270.350 33.600,272.000 34.220 C 273.650 34.840,275.270 35.562,275.600 35.825 C 275.930 36.087,276.875 36.540,277.700 36.831 C 278.525 37.122,279.200 37.505,279.200 37.680 C 279.200 37.856,279.412 38.000,279.670 38.000 C 280.473 38.000,286.000 40.873,286.000 41.290 C 286.000 41.508,286.264 41.584,286.587 41.460 C 286.910 41.336,287.292 41.425,287.436 41.658 C 287.580 41.891,288.306 42.336,289.049 42.646 C 289.792 42.957,290.400 43.399,290.400 43.629 C 290.400 43.859,290.554 43.952,290.742 43.836 C 290.930 43.720,291.496 44.064,292.000 44.600 C 292.504 45.136,293.070 45.480,293.258 45.364 C 293.446 45.248,293.600 45.324,293.600 45.534 C 293.600 45.743,293.904 46.031,294.275 46.174 C 294.921 46.421,297.857 43.724,297.418 43.285 C 297.216 43.083,300.383 38.668,300.875 38.467 C 301.054 38.393,301.200 38.156,301.200 37.939 C 301.200 37.722,301.740 36.759,302.400 35.800 C 303.060 34.841,303.600 33.963,303.600 33.849 C 303.600 33.735,304.052 33.154,304.604 32.558 C 305.156 31.962,305.518 31.384,305.407 31.274 C 305.297 31.164,305.375 30.871,305.581 30.623 C 306.084 30.017,305.698 29.536,303.800 28.400 C 302.920 27.873,302.110 27.329,302.000 27.191 C 301.890 27.053,300.990 26.509,300.000 25.983 C 299.010 25.456,297.885 24.767,297.500 24.451 C 297.115 24.135,296.800 24.022,296.800 24.200 C 296.800 24.378,296.485 24.239,296.099 23.890 C 295.351 23.213,293.198 22.228,292.700 22.335 C 292.535 22.371,292.400 22.249,292.400 22.064 C 292.400 21.739,290.368 20.652,290.036 20.799 C 289.946 20.839,289.710 20.582,289.511 20.227 C 289.313 19.873,288.970 19.695,288.749 19.832 C 288.528 19.968,288.130 19.784,287.866 19.422 C 287.601 19.060,286.983 18.734,286.492 18.697 C 286.002 18.660,285.600 18.469,285.600 18.272 C 285.600 18.075,285.336 18.016,285.013 18.140 C 284.690 18.264,284.333 18.215,284.219 18.031 C 283.978 17.640,281.255 16.283,280.440 16.147 C 280.132 16.095,279.754 15.849,279.600 15.600 C 279.446 15.351,279.068 15.101,278.760 15.044 C 278.452 14.988,277.570 14.671,276.800 14.340 C 276.030 14.009,274.410 13.394,273.200 12.973 C 271.990 12.551,270.875 12.030,270.722 11.815 C 270.569 11.599,270.313 11.553,270.154 11.712 C 269.995 11.872,269.577 11.741,269.225 11.423 C 268.874 11.105,267.995 10.740,267.273 10.613 C 266.550 10.486,265.654 10.211,265.280 10.002 C 264.394 9.508,259.105 8.000,258.257 8.000 C 257.896 8.000,257.600 7.809,257.600 7.576 C 257.600 7.343,257.420 7.264,257.200 7.400 C 256.980 7.536,256.800 7.454,256.800 7.217 C 256.800 6.520,254.404 6.882,254.369 7.585 M112.700 17.480 C 112.315 17.578,112.000 17.787,112.000 17.944 C 112.000 18.101,111.671 18.255,111.269 18.285 C 110.866 18.315,109.651 18.854,108.569 19.482 C 107.486 20.110,105.160 21.338,103.400 22.212 C 101.640 23.085,100.140 23.935,100.067 24.100 C 99.993 24.265,99.777 24.400,99.587 24.400 C 99.396 24.400,98.440 24.940,97.462 25.600 C 96.484 26.260,95.485 26.800,95.242 26.800 C 94.999 26.800,94.800 26.991,94.800 27.224 C 94.800 27.457,94.631 27.543,94.425 27.415 C 94.218 27.288,93.903 27.412,93.725 27.692 C 93.318 28.328,92.231 29.011,90.300 29.841 C 89.475 30.196,88.800 30.658,88.800 30.867 C 88.800 31.076,88.639 31.148,88.442 31.026 C 88.245 30.904,87.981 31.074,87.854 31.402 C 87.728 31.731,87.339 32.000,86.989 32.000 C 86.639 32.000,86.464 32.180,86.600 32.400 C 86.736 32.620,86.477 32.800,86.024 32.800 C 85.571 32.800,85.200 32.948,85.200 33.129 C 85.200 33.310,84.390 33.863,83.400 34.357 C 82.410 34.852,81.600 35.409,81.600 35.595 C 81.600 35.782,80.925 36.345,80.100 36.845 C 79.275 37.346,78.456 37.991,78.280 38.278 C 78.104 38.565,77.699 38.800,77.380 38.800 C 77.061 38.800,76.800 38.938,76.800 39.106 C 76.800 39.275,75.889 40.009,74.775 40.738 C 73.662 41.467,72.652 42.320,72.532 42.632 C 72.412 42.944,72.124 43.200,71.891 43.200 C 71.451 43.200,71.137 43.453,68.813 45.674 C 68.050 46.403,67.285 46.955,67.113 46.900 C 66.526 46.712,66.798 47.514,67.400 47.745 C 67.730 47.871,68.000 48.173,68.000 48.416 C 68.000 48.892,70.286 51.429,74.353 55.466 C 75.757 56.860,76.777 58.000,76.619 58.000 C 76.461 58.000,77.280 58.900,78.439 60.000 C 80.848 62.285,81.056 62.353,81.653 61.044 C 81.892 60.518,82.563 59.843,83.144 59.544 C 84.400 58.897,84.857 58.557,86.446 57.090 C 87.108 56.479,88.403 55.504,89.324 54.924 C 90.246 54.344,91.180 53.663,91.400 53.412 C 91.877 52.867,94.914 50.609,95.200 50.587 C 95.709 50.548,97.493 49.391,98.355 48.541 C 98.880 48.023,99.555 47.600,99.855 47.600 C 100.155 47.600,100.400 47.420,100.400 47.200 C 100.400 46.980,100.535 46.843,100.700 46.895 C 100.865 46.947,101.832 46.414,102.849 45.711 C 103.866 45.007,104.840 44.559,105.013 44.716 C 105.187 44.872,105.198 44.774,105.039 44.497 C 104.863 44.191,105.033 43.899,105.475 43.750 C 107.272 43.146,108.400 42.579,108.400 42.279 C 108.400 42.099,108.569 42.057,108.776 42.185 C 108.983 42.313,109.478 42.072,109.876 41.649 C 110.661 40.816,114.882 38.667,116.561 38.245 C 117.133 38.102,117.600 37.798,117.600 37.569 C 117.600 37.340,117.780 37.264,118.000 37.400 C 118.220 37.536,118.400 37.478,118.400 37.270 C 118.400 37.063,118.715 36.788,119.100 36.658 C 120.749 36.105,121.981 35.011,121.818 34.246 C 121.648 33.449,120.811 31.415,120.399 30.800 C 119.897 30.049,119.171 28.391,118.997 27.600 C 118.925 27.270,118.401 25.960,117.833 24.689 C 117.265 23.417,116.800 22.112,116.800 21.789 C 116.800 21.465,116.609 21.200,116.376 21.200 C 116.143 21.200,116.064 21.020,116.200 20.800 C 116.336 20.580,116.257 20.400,116.024 20.400 C 115.791 20.400,115.594 20.085,115.586 19.700 C 115.551 17.987,114.345 17.059,112.700 17.480 M190.147 32.200 C 190.280 33.960,190.392 36.266,190.395 37.324 C 190.398 38.382,190.535 39.164,190.700 39.062 C 190.865 38.961,191.024 40.759,191.053 43.058 C 191.081 45.357,191.171 47.295,191.253 47.365 C 191.334 47.435,195.990 47.620,201.600 47.777 C 213.562 48.112,213.200 48.091,213.200 48.456 C 213.200 48.612,213.830 48.681,214.601 48.610 C 215.371 48.538,216.089 48.620,216.195 48.792 C 216.302 48.965,217.066 49.116,217.894 49.128 C 218.722 49.140,220.030 49.264,220.800 49.403 C 222.659 49.738,224.235 49.965,226.328 50.201 C 227.278 50.308,229.228 50.667,230.662 51.000 C 233.715 51.708,233.890 51.643,234.218 49.686 C 234.355 48.869,234.642 47.629,234.855 46.930 C 235.068 46.232,235.333 45.158,235.445 44.543 C 235.556 43.928,235.793 43.239,235.972 43.012 C 236.150 42.786,236.440 41.880,236.617 41.000 C 236.982 39.182,237.066 38.841,237.184 38.700 C 237.434 38.400,238.280 33.753,238.130 33.500 C 238.033 33.335,237.606 33.200,237.182 33.200 C 236.452 33.200,233.296 32.524,232.000 32.090 C 230.650 31.638,228.128 31.199,225.940 31.036 C 224.918 30.959,223.928 30.805,223.740 30.692 C 223.553 30.580,222.133 30.375,220.584 30.237 C 219.035 30.099,217.325 29.900,216.784 29.795 C 215.035 29.454,206.809 29.130,198.252 29.064 L 189.905 29.000 190.147 32.200 M314.700 35.911 C 314.315 35.992,314.000 36.288,314.000 36.567 C 314.000 36.847,313.640 37.402,313.200 37.800 C 312.760 38.198,312.400 38.734,312.400 38.990 C 312.400 39.246,311.860 40.061,311.200 40.800 C 310.540 41.539,310.000 42.294,310.000 42.476 C 310.000 42.787,308.853 44.517,305.807 48.800 C 303.506 52.035,303.566 52.645,306.336 54.238 C 307.361 54.827,308.695 55.835,309.299 56.479 C 309.927 57.146,310.597 57.525,310.861 57.362 C 311.148 57.185,311.215 57.252,311.038 57.538 C 310.869 57.812,311.007 58.000,311.376 58.000 C 311.719 58.000,312.000 58.186,312.000 58.413 C 312.000 58.639,312.311 58.944,312.691 59.090 C 313.071 59.236,313.767 59.771,314.237 60.278 C 314.707 60.785,315.218 61.200,315.372 61.200 C 315.526 61.200,316.112 61.748,316.676 62.417 C 317.239 63.086,317.786 63.547,317.892 63.441 C 318.175 63.158,319.148 64.147,318.934 64.500 C 318.835 64.665,318.988 64.804,319.276 64.809 C 319.564 64.814,320.419 65.534,321.176 66.409 C 321.933 67.284,322.799 68.000,323.100 68.000 C 323.401 68.000,323.536 68.180,323.400 68.400 C 323.264 68.620,323.308 68.800,323.498 68.800 C 323.903 68.800,328.973 73.804,331.676 76.871 C 332.707 78.042,334.417 79.916,335.476 81.035 C 338.218 83.934,339.211 85.159,339.098 85.501 C 338.765 86.511,340.874 85.840,342.392 84.453 C 343.345 83.581,344.579 82.628,345.135 82.334 C 345.691 82.040,346.850 81.170,347.711 80.400 C 348.572 79.630,349.394 79.000,349.538 78.999 C 349.682 78.999,350.934 78.054,352.321 76.899 C 353.707 75.745,355.012 74.800,355.221 74.800 C 355.878 74.800,355.633 73.753,354.798 72.998 C 354.356 72.598,354.085 72.182,354.195 72.072 C 354.305 71.962,354.036 71.620,353.597 71.313 C 353.159 71.006,352.800 70.525,352.800 70.245 C 352.800 69.965,352.350 69.494,351.800 69.200 C 351.250 68.906,350.800 68.514,350.800 68.329 C 350.800 67.903,349.141 65.991,346.700 63.605 C 345.655 62.583,344.800 61.645,344.800 61.521 C 344.800 61.397,343.000 59.496,340.800 57.298 C 338.600 55.099,336.800 53.391,336.800 53.502 C 336.800 53.612,335.930 52.805,334.866 51.707 C 333.802 50.609,332.750 49.641,332.528 49.555 C 332.148 49.409,328.126 45.923,325.558 43.513 C 324.921 42.916,324.400 42.545,324.400 42.690 C 324.400 42.835,324.175 42.681,323.900 42.348 C 323.625 42.016,321.690 40.500,319.600 38.980 C 317.510 37.460,315.710 36.115,315.600 35.990 C 315.490 35.866,315.085 35.830,314.700 35.911 M56.340 56.900 C 54.943 58.275,53.305 60.010,52.700 60.755 C 52.095 61.500,51.600 62.003,51.600 61.873 C 51.600 61.743,51.154 62.082,50.609 62.627 C 50.064 63.172,49.628 63.718,49.640 63.841 C 49.652 63.963,48.928 64.783,48.031 65.663 C 47.134 66.542,46.400 67.315,46.400 67.381 C 46.400 67.446,45.590 68.345,44.600 69.378 C 43.610 70.412,42.799 71.379,42.798 71.529 C 42.797 71.678,42.162 72.520,41.388 73.400 C 39.348 75.717,39.200 75.920,39.200 76.407 C 39.200 76.649,39.060 76.761,38.889 76.655 C 38.718 76.550,37.644 77.844,36.501 79.532 C 35.359 81.219,33.879 83.371,33.212 84.314 C 32.545 85.257,32.000 86.213,32.000 86.438 C 32.000 86.663,31.822 86.737,31.604 86.602 C 31.386 86.468,30.891 87.032,30.504 87.857 C 30.117 88.681,29.395 89.797,28.900 90.336 C 28.405 90.876,28.000 91.478,28.000 91.675 C 28.000 91.872,27.640 92.420,27.200 92.892 C 26.760 93.364,26.400 93.999,26.400 94.302 C 26.400 94.605,25.950 95.443,25.400 96.164 C 24.024 97.969,24.702 99.422,27.083 99.771 C 27.403 99.818,27.827 100.114,28.026 100.428 C 28.225 100.743,28.391 100.834,28.394 100.630 C 28.397 100.427,28.818 100.654,29.330 101.134 C 29.841 101.614,30.381 101.886,30.530 101.737 C 30.678 101.588,30.800 101.687,30.800 101.957 C 30.800 102.227,30.968 102.344,31.172 102.217 C 31.377 102.091,31.660 102.173,31.800 102.400 C 31.940 102.627,32.224 102.709,32.430 102.581 C 32.637 102.454,32.909 102.620,33.036 102.950 C 33.163 103.281,33.804 103.669,34.460 103.813 C 35.117 103.957,35.751 104.327,35.869 104.635 C 35.987 104.943,36.226 105.107,36.400 105.000 C 36.574 104.893,36.829 105.099,36.968 105.460 C 37.106 105.820,37.322 106.012,37.447 105.886 C 37.573 105.761,38.458 106.095,39.415 106.629 C 41.723 107.918,41.796 107.899,43.050 105.700 C 43.645 104.655,44.427 103.440,44.787 103.000 C 45.147 102.560,45.792 101.506,46.221 100.657 C 46.649 99.808,47.402 98.728,47.893 98.257 C 48.384 97.786,48.789 97.244,48.793 97.054 C 48.803 96.573,51.658 92.672,52.286 92.280 C 52.569 92.104,52.800 91.765,52.800 91.527 C 52.800 91.289,53.172 90.771,53.626 90.377 C 54.081 89.983,54.447 89.561,54.440 89.438 C 54.407 88.830,55.887 86.770,56.500 86.572 C 56.885 86.448,57.200 86.177,57.200 85.970 C 57.200 85.582,58.014 84.608,61.300 81.059 C 62.345 79.931,63.200 78.781,63.200 78.504 C 63.200 78.227,63.393 78.000,63.629 78.000 C 64.055 78.000,65.310 76.932,65.139 76.714 C 65.090 76.651,66.613 75.072,68.525 73.204 C 70.436 71.336,72.000 69.570,72.000 69.280 C 72.000 68.990,72.180 68.864,72.400 69.000 C 73.244 69.522,72.736 68.799,71.200 67.293 C 70.320 66.431,69.600 65.609,69.600 65.468 C 69.600 65.326,68.745 64.339,67.700 63.275 C 66.655 62.210,64.810 60.207,63.600 58.824 C 58.908 53.463,59.635 53.656,56.340 56.900 M335.600 101.077 C 334.610 101.832,333.170 102.983,332.400 103.634 C 330.360 105.360,327.292 107.600,326.969 107.600 C 326.815 107.600,325.908 108.320,324.954 109.200 C 323.999 110.080,323.051 110.800,322.846 110.800 C 322.642 110.800,322.569 111.160,322.684 111.600 C 322.799 112.040,323.042 112.400,323.225 112.400 C 323.565 112.400,323.884 112.906,325.580 116.134 C 326.119 117.160,326.704 118.000,326.880 118.000 C 327.056 118.000,327.200 118.281,327.200 118.624 C 327.200 118.967,327.359 119.149,327.554 119.029 C 327.748 118.909,328.143 119.393,328.431 120.105 C 328.719 120.817,329.145 121.528,329.377 121.685 C 329.610 121.842,329.822 122.157,329.850 122.385 C 329.878 122.613,329.923 122.972,329.950 123.182 C 329.978 123.392,330.458 124.022,331.018 124.582 C 331.578 125.142,331.937 125.600,331.816 125.600 C 331.616 125.600,333.915 130.125,335.881 133.600 C 336.316 134.370,336.903 135.720,337.184 136.600 C 337.465 137.480,338.233 139.156,338.891 140.325 C 339.993 142.283,341.521 145.904,341.751 147.104 C 341.997 148.385,342.699 148.426,346.237 147.365 C 348.196 146.777,350.790 146.029,352.000 145.703 C 353.210 145.376,354.290 144.974,354.400 144.808 C 354.510 144.642,355.680 144.195,357.000 143.815 C 359.771 143.018,360.577 142.495,360.039 141.847 C 359.835 141.601,359.266 140.230,358.775 138.800 C 358.284 137.370,357.713 136.090,357.507 135.955 C 357.300 135.821,357.147 135.596,357.166 135.455 C 357.321 134.293,357.080 133.490,356.400 132.907 C 355.960 132.530,355.600 131.940,355.600 131.595 C 355.600 131.251,354.970 129.761,354.200 128.284 C 353.431 126.808,352.919 125.600,353.062 125.600 C 353.206 125.600,352.998 125.240,352.600 124.800 C 352.202 124.360,352.016 124.000,352.187 124.000 C 352.358 124.000,352.320 123.775,352.103 123.500 C 351.294 122.477,349.600 119.151,349.600 118.586 C 349.600 118.264,349.409 118.000,349.176 118.000 C 348.943 118.000,348.858 117.829,348.988 117.620 C 349.117 117.411,348.857 117.045,348.411 116.806 C 347.965 116.567,347.600 116.105,347.600 115.778 C 347.600 115.451,347.182 114.513,346.671 113.692 C 346.160 112.871,345.625 111.885,345.483 111.500 C 345.341 111.115,345.029 110.800,344.789 110.800 C 344.549 110.800,344.455 110.635,344.580 110.432 C 344.705 110.230,344.569 109.825,344.277 109.532 C 343.985 109.240,343.414 108.460,343.007 107.800 C 341.703 105.684,338.821 101.427,338.099 100.551 L 337.400 99.703 335.600 101.077 M17.717 109.900 C 17.018 111.385,16.332 113.008,16.194 113.506 C 16.043 114.050,15.754 114.304,15.471 114.142 C 15.212 113.993,15.136 114.021,15.301 114.204 C 15.467 114.387,15.367 114.911,15.078 115.368 C 14.550 116.205,13.158 119.709,13.124 120.289 C 13.114 120.460,12.857 120.955,12.553 121.389 C 12.249 121.823,12.000 122.425,12.000 122.727 C 12.000 123.029,11.679 123.754,11.286 124.338 C 10.893 124.922,10.230 126.480,9.813 127.800 C 9.395 129.120,8.881 130.429,8.670 130.710 C 8.459 130.990,8.389 131.322,8.514 131.447 C 8.639 131.573,8.322 132.427,7.810 133.346 C 7.297 134.264,6.784 135.552,6.671 136.208 C 6.558 136.864,6.102 138.429,5.659 139.687 C 5.215 140.944,4.768 142.474,4.665 143.087 C 4.484 144.166,4.289 144.838,3.735 146.300 C 3.589 146.685,3.431 147.135,3.385 147.300 C 3.338 147.465,3.264 147.645,3.219 147.700 C 3.106 147.841,2.810 149.200,2.607 150.509 C 2.513 151.120,2.340 151.774,2.223 151.963 C 2.106 152.152,1.903 152.980,1.773 153.804 C 1.642 154.628,1.444 155.684,1.333 156.151 C 0.329 160.385,0.332 160.400,2.290 160.400 C 3.037 160.400,3.555 160.550,3.441 160.733 C 3.210 161.108,3.386 161.148,6.200 161.370 C 7.300 161.457,8.245 161.567,8.300 161.614 C 8.414 161.712,8.545 161.746,10.200 162.107 C 10.860 162.251,12.075 162.466,12.900 162.584 C 13.725 162.703,14.985 162.893,15.700 163.008 C 20.006 163.695,20.450 163.564,20.650 161.540 C 20.784 160.182,21.372 157.729,22.808 152.535 C 23.244 150.959,23.600 149.384,23.600 149.035 C 23.600 148.686,23.791 148.400,24.024 148.400 C 24.257 148.400,24.324 148.200,24.172 147.955 C 24.021 147.711,24.105 147.382,24.359 147.225 C 24.613 147.069,24.898 146.414,24.993 145.770 C 25.088 145.127,25.435 143.743,25.765 142.695 C 26.095 141.647,26.397 140.657,26.437 140.495 C 26.541 140.067,27.197 138.385,27.800 137.000 C 28.766 134.782,29.208 133.446,29.290 132.500 C 29.314 132.225,29.483 132.000,29.667 132.000 C 29.850 132.000,30.001 131.775,30.002 131.500 C 30.004 131.225,30.280 130.473,30.616 129.828 C 30.952 129.184,31.276 128.337,31.335 127.946 C 31.395 127.555,31.728 126.913,32.075 126.518 C 32.638 125.876,33.366 124.124,33.287 123.600 C 33.271 123.490,33.510 123.121,33.819 122.779 C 34.128 122.438,34.451 121.808,34.536 121.379 C 34.873 119.694,35.687 118.052,36.305 117.815 C 36.960 117.564,35.675 115.930,34.600 115.648 C 34.380 115.590,33.930 115.320,33.600 115.047 C 33.270 114.774,32.100 114.112,31.000 113.576 C 29.900 113.039,28.868 112.420,28.706 112.200 C 28.510 111.933,28.406 111.933,28.393 112.200 C 28.383 112.420,28.155 112.323,27.887 111.985 C 27.619 111.647,26.324 110.849,25.008 110.211 C 23.693 109.573,22.003 108.635,21.252 108.126 C 19.310 106.808,19.132 106.897,17.717 109.900 M388.200 142.804 C 386.880 143.227,385.440 143.763,385.000 143.994 C 384.560 144.226,381.680 145.181,378.600 146.116 C 372.549 147.955,372.802 147.748,373.356 150.400 C 373.425 150.730,373.621 151.720,373.793 152.600 C 373.965 153.480,374.211 154.380,374.341 154.600 C 374.471 154.820,374.616 155.180,374.663 155.400 C 374.709 155.620,374.923 156.371,375.137 157.070 C 375.352 157.768,375.428 158.439,375.306 158.560 C 375.185 158.681,375.300 159.038,375.561 159.353 C 376.038 159.927,376.647 162.686,377.017 165.940 C 377.125 166.896,377.385 167.998,377.593 168.387 C 377.801 168.776,377.893 169.174,377.796 169.271 C 377.699 169.368,377.808 170.606,378.038 172.023 C 378.680 175.974,378.784 176.783,379.042 179.800 C 379.174 181.340,379.415 182.780,379.577 183.000 C 380.328 184.018,380.506 217.021,379.764 217.522 C 379.370 217.787,379.270 218.626,379.123 222.900 C 379.087 223.945,378.931 224.800,378.776 224.800 C 378.531 224.800,378.245 226.673,377.768 231.400 C 377.559 233.475,375.917 241.391,375.653 241.600 C 375.514 241.710,375.364 242.160,375.321 242.600 C 375.277 243.040,374.871 244.750,374.418 246.400 C 373.965 248.050,373.523 249.850,373.435 250.400 C 373.348 250.950,372.992 252.300,372.643 253.400 C 371.755 256.200,371.827 256.518,373.510 257.232 C 374.330 257.579,375.681 258.164,376.514 258.532 C 377.346 258.899,378.460 259.200,378.990 259.200 C 379.520 259.200,380.049 259.355,380.166 259.545 C 380.283 259.735,381.239 260.123,382.290 260.407 C 383.340 260.692,384.425 261.098,384.700 261.311 C 384.975 261.524,385.200 261.582,385.200 261.440 C 385.200 261.298,385.650 261.476,386.200 261.837 C 386.750 262.197,387.200 262.390,387.200 262.266 C 387.200 262.142,387.824 262.302,388.587 262.620 C 390.575 263.451,390.590 263.440,391.136 260.800 C 391.408 259.480,391.815 258.400,392.039 258.400 C 392.264 258.400,392.339 258.225,392.207 258.012 C 392.075 257.798,392.251 257.074,392.598 256.403 C 392.945 255.732,393.309 254.512,393.406 253.692 C 393.595 252.102,393.750 251.362,394.094 250.400 C 394.569 249.071,395.161 246.490,395.423 244.600 C 395.576 243.500,395.903 242.347,396.150 242.039 C 396.398 241.730,396.555 241.415,396.500 241.339 C 396.445 241.262,396.414 241.155,396.431 241.100 C 396.598 240.552,396.840 239.077,397.004 237.600 C 397.115 236.610,397.291 235.350,397.396 234.800 C 397.501 234.250,397.672 233.350,397.778 232.800 C 398.070 231.269,398.368 229.059,398.597 226.720 C 398.711 225.554,398.887 224.172,398.989 223.649 C 400.062 218.124,400.222 187.746,399.222 179.400 C 398.985 177.420,398.696 174.900,398.581 173.800 C 398.466 172.700,398.163 170.630,397.907 169.200 C 397.652 167.770,397.486 166.441,397.539 166.248 C 397.682 165.722,396.745 161.485,396.223 160.300 C 396.053 159.915,396.010 159.352,396.126 159.049 C 396.242 158.746,396.187 158.341,396.002 158.149 C 395.818 157.957,395.558 157.080,395.424 156.200 C 395.291 155.320,395.088 154.299,394.974 153.932 C 394.860 153.565,394.699 152.935,394.617 152.532 C 394.534 152.129,394.259 150.990,394.005 150.000 C 393.751 149.010,393.491 147.930,393.427 147.600 C 393.363 147.270,393.223 146.730,393.115 146.400 C 393.007 146.070,392.667 144.992,392.360 144.004 C 391.700 141.887,391.361 141.789,388.200 142.804 M30.921 174.763 C 30.477 175.090,30.357 175.698,29.960 179.600 C 29.770 181.470,29.502 183.810,29.363 184.800 C 28.247 192.786,29.289 223.558,30.658 223.033 C 30.984 222.908,32.274 222.697,33.525 222.564 C 34.776 222.431,35.952 222.228,36.138 222.114 C 36.324 221.999,37.044 221.843,37.738 221.766 C 39.475 221.575,40.868 221.266,41.117 221.016 C 41.232 220.901,41.603 221.030,41.940 221.303 C 42.357 221.641,42.464 221.650,42.273 221.332 C 42.075 221.002,42.788 220.791,44.696 220.614 C 47.959 220.311,48.624 219.987,48.523 218.748 C 48.303 216.020,47.933 212.934,47.766 212.437 C 47.662 212.127,47.599 206.997,47.626 201.037 C 47.653 195.076,47.668 189.870,47.660 189.467 C 47.652 189.064,47.814 188.289,48.021 187.744 C 48.278 187.067,48.265 186.836,47.978 187.013 C 47.748 187.156,47.829 186.626,48.159 185.836 C 48.489 185.046,48.603 184.400,48.412 184.400 C 48.215 184.400,48.216 183.835,48.412 183.100 C 48.603 182.385,48.814 180.917,48.880 179.839 L 49.000 177.877 46.800 177.373 C 45.590 177.095,44.527 176.942,44.437 177.031 C 44.347 177.120,44.059 177.015,43.796 176.797 C 43.533 176.579,42.216 176.319,40.870 176.220 C 39.523 176.121,38.085 175.860,37.674 175.640 C 37.264 175.420,36.584 175.247,36.164 175.255 C 35.744 175.263,34.465 175.103,33.321 174.898 C 32.178 174.694,31.098 174.633,30.921 174.763 M13.624 234.611 C 11.987 234.907,10.547 235.130,10.424 235.106 C 10.301 235.082,9.304 235.210,8.210 235.390 C 7.115 235.571,5.855 235.758,5.410 235.808 C 4.964 235.857,4.510 235.937,4.400 235.986 C 4.197 236.075,3.139 236.181,1.045 236.322 C -0.108 236.400,-0.110 236.404,0.149 238.500 C 0.638 242.466,0.757 243.154,1.245 244.875 C 1.514 245.824,1.774 246.780,1.822 247.000 C 1.965 247.650,2.445 250.136,2.595 251.000 C 2.671 251.440,2.770 251.890,2.814 252.000 C 2.858 252.110,2.867 252.354,2.833 252.542 C 2.800 252.730,2.974 253.127,3.220 253.425 C 3.467 253.722,3.536 254.181,3.373 254.444 C 3.198 254.726,3.246 254.819,3.487 254.670 C 3.722 254.525,4.003 254.970,4.144 255.708 C 4.279 256.419,4.679 257.990,5.032 259.200 C 5.385 260.410,5.953 262.480,6.294 263.800 C 6.636 265.120,7.139 266.470,7.413 266.800 C 7.687 267.130,8.040 268.030,8.198 268.800 C 8.356 269.570,8.886 271.010,9.376 272.000 C 9.866 272.990,10.192 274.025,10.100 274.300 C 10.008 274.575,10.123 274.800,10.354 274.800 C 10.586 274.800,10.680 275.047,10.564 275.348 C 10.449 275.650,10.626 276.169,10.958 276.501 C 11.290 276.833,11.441 277.226,11.293 277.374 C 11.144 277.522,11.245 277.780,11.515 277.948 C 11.786 278.115,12.323 279.140,12.710 280.226 C 13.096 281.312,13.584 282.470,13.794 282.800 C 14.005 283.130,14.232 283.752,14.299 284.183 C 14.365 284.613,14.641 285.105,14.910 285.277 C 15.180 285.448,15.237 285.591,15.038 285.594 C 14.839 285.597,14.931 285.915,15.242 286.300 C 15.901 287.114,17.241 289.483,17.217 289.790 C 17.208 289.906,17.200 290.085,17.200 290.189 C 17.200 290.365,19.879 289.027,21.207 288.188 C 21.533 287.981,21.890 287.805,22.000 287.795 C 22.110 287.786,23.820 286.886,25.800 285.795 C 27.780 284.704,29.490 283.794,29.600 283.773 C 30.162 283.665,33.494 281.961,34.113 281.465 C 34.853 280.871,33.820 277.030,32.741 276.364 C 32.524 276.230,32.308 275.868,32.261 275.560 C 32.214 275.252,31.802 274.190,31.345 273.200 C 30.888 272.210,30.276 270.590,29.985 269.600 C 29.694 268.610,29.274 267.560,29.051 267.267 C 28.829 266.973,28.620 266.372,28.587 265.930 C 28.555 265.488,28.337 265.008,28.104 264.863 C 27.731 264.632,26.389 260.701,26.409 259.896 C 26.413 259.729,26.139 259.055,25.800 258.400 C 25.461 257.745,25.187 257.116,25.192 257.004 C 25.196 256.892,25.186 256.755,25.169 256.700 C 25.015 256.195,24.745 254.901,24.710 254.500 C 24.686 254.225,24.522 254.000,24.346 254.000 C 24.169 254.000,24.129 253.730,24.255 253.400 C 24.382 253.070,24.315 252.800,24.106 252.800 C 23.801 252.800,23.171 250.743,22.576 247.800 C 22.532 247.580,22.209 246.440,21.859 245.266 C 21.509 244.092,21.239 243.012,21.259 242.866 C 21.279 242.720,21.260 242.510,21.217 242.400 C 21.174 242.290,21.080 241.930,21.007 241.600 C 20.935 241.270,20.754 240.460,20.605 239.800 C 20.455 239.140,20.283 238.330,20.222 238.000 C 20.161 237.670,20.011 237.130,19.889 236.800 C 19.767 236.470,19.558 235.705,19.426 235.100 C 19.143 233.807,18.407 233.745,13.624 234.611 M338.382 255.849 C 338.172 256.401,338.000 257.015,338.000 257.214 C 338.000 257.413,337.550 258.560,337.000 259.763 C 336.450 260.965,336.000 262.241,336.000 262.598 C 336.000 262.955,335.820 263.136,335.600 263.000 C 335.380 262.864,335.200 263.123,335.200 263.576 C 335.200 264.029,335.020 264.400,334.800 264.400 C 334.580 264.400,334.400 264.749,334.400 265.176 C 334.400 265.603,334.220 266.064,334.000 266.200 C 333.780 266.336,333.600 266.775,333.600 267.175 C 333.600 267.575,333.330 268.126,333.000 268.400 C 332.670 268.674,332.400 269.208,332.400 269.588 C 332.400 269.967,332.040 270.693,331.600 271.200 C 331.160 271.707,330.800 272.365,330.800 272.661 C 330.800 272.958,330.620 273.200,330.400 273.200 C 330.180 273.200,330.000 273.397,330.000 273.638 C 330.000 273.879,329.596 274.644,329.102 275.338 C 328.607 276.032,328.223 276.690,328.247 276.800 C 328.343 277.230,327.452 278.800,327.112 278.800 C 326.915 278.800,326.864 278.980,327.000 279.200 C 327.136 279.420,327.090 279.600,326.898 279.600 C 326.705 279.600,326.236 280.185,325.854 280.900 C 324.221 283.957,323.939 284.400,323.625 284.400 C 323.442 284.400,323.188 284.715,323.058 285.100 C 322.707 286.146,321.889 287.321,321.093 287.921 C 320.705 288.215,320.483 288.610,320.600 288.800 C 320.717 288.990,320.495 289.385,320.107 289.678 C 318.461 290.917,318.376 291.805,319.828 292.587 C 320.570 292.987,321.098 293.441,321.002 293.597 C 320.906 293.752,321.271 294.117,321.814 294.407 C 322.356 294.698,322.800 295.085,322.800 295.268 C 322.800 295.450,323.025 295.601,323.300 295.602 C 323.575 295.603,324.643 296.402,325.673 297.378 C 326.703 298.353,328.098 299.437,328.773 299.786 C 329.448 300.135,330.000 300.596,330.000 300.810 C 330.000 301.025,330.270 301.200,330.600 301.200 C 330.930 301.200,331.200 301.368,331.200 301.573 C 331.200 301.778,331.563 302.061,332.006 302.202 C 332.449 302.343,332.708 302.625,332.582 302.829 C 332.319 303.254,332.845 303.311,333.767 302.957 C 334.115 302.824,334.400 302.374,334.400 301.957 C 334.400 301.541,334.568 301.200,334.773 301.200 C 334.978 301.200,335.261 300.837,335.402 300.394 C 335.543 299.951,335.826 299.692,336.032 299.820 C 336.237 299.947,336.526 299.724,336.674 299.325 C 336.821 298.926,337.045 298.510,337.171 298.400 C 337.530 298.086,338.320 296.752,339.242 294.900 C 339.707 293.965,340.254 293.200,340.457 293.200 C 340.659 293.200,340.944 292.885,341.088 292.500 C 341.453 291.529,344.052 287.453,344.492 287.160 C 344.691 287.028,344.913 286.668,344.985 286.360 C 345.346 284.834,345.729 284.000,346.070 284.000 C 346.278 284.000,346.336 283.820,346.200 283.600 C 346.064 283.380,346.124 283.200,346.333 283.200 C 346.542 283.200,346.818 282.795,346.946 282.300 C 347.074 281.805,347.634 280.877,348.190 280.238 C 348.745 279.599,349.200 278.834,349.200 278.538 C 349.200 277.872,352.000 272.291,352.502 271.955 C 352.703 271.821,352.861 271.599,352.852 271.463 C 352.836 271.237,353.331 269.910,354.218 267.800 C 354.403 267.360,354.574 266.820,354.598 266.600 C 354.744 265.274,355.723 263.229,356.100 263.462 C 356.378 263.634,356.444 263.491,356.281 263.066 C 356.140 262.699,356.218 262.400,356.455 262.400 C 356.692 262.400,356.782 262.130,356.655 261.800 C 356.529 261.470,356.644 261.196,356.913 261.191 C 357.615 261.177,352.722 259.204,351.980 259.202 C 351.639 259.201,351.189 259.047,350.980 258.859 C 350.771 258.671,349.745 258.288,348.700 258.007 C 347.655 257.726,346.800 257.351,346.800 257.173 C 346.800 256.995,346.485 256.841,346.100 256.830 C 344.637 256.789,344.000 256.658,344.000 256.397 C 344.000 256.086,341.046 255.093,339.682 254.945 C 339.019 254.873,338.657 255.125,338.382 255.849 M63.100 276.327 C 62.275 276.647,61.600 277.064,61.600 277.254 C 61.600 277.444,61.400 277.600,61.156 277.600 C 60.552 277.600,54.634 280.520,54.466 280.901 C 54.392 281.068,54.167 281.103,53.966 280.979 C 53.765 280.855,53.600 280.916,53.600 281.116 C 53.600 281.316,52.430 281.977,51.000 282.585 C 49.570 283.193,48.400 283.844,48.400 284.031 C 48.400 284.681,49.750 287.200,50.098 287.200 C 50.290 287.200,50.340 287.373,50.209 287.585 C 50.078 287.797,50.344 288.344,50.800 288.800 C 51.256 289.256,51.522 289.803,51.391 290.015 C 51.260 290.227,51.328 290.400,51.542 290.400 C 52.048 290.400,54.419 294.248,54.106 294.561 C 53.974 294.692,54.077 294.800,54.333 294.800 C 54.590 294.800,54.800 295.064,54.800 295.386 C 54.800 295.708,55.148 296.158,55.573 296.386 C 55.998 296.613,56.474 297.204,56.630 297.700 C 56.787 298.195,57.249 298.835,57.657 299.123 C 58.066 299.410,58.400 299.806,58.400 300.002 C 58.400 300.198,58.850 300.844,59.400 301.438 C 59.950 302.031,60.400 302.747,60.400 303.029 C 60.400 303.311,60.859 303.903,61.421 304.345 C 61.982 304.786,62.432 305.249,62.421 305.374 C 62.346 306.191,62.450 306.417,62.800 306.200 C 63.020 306.064,63.200 306.116,63.200 306.315 C 63.200 306.634,63.625 307.225,65.193 309.083 C 65.417 309.349,65.600 309.682,65.600 309.823 C 65.600 309.964,66.185 310.671,66.900 311.393 C 68.474 312.982,70.000 314.745,70.000 314.973 C 70.000 315.065,71.714 316.876,73.809 318.999 L 77.618 322.857 80.009 320.391 C 81.324 319.034,82.400 317.759,82.400 317.556 C 82.400 317.354,82.985 316.832,83.700 316.396 C 84.415 315.960,84.820 315.597,84.600 315.589 C 84.380 315.582,84.515 315.392,84.900 315.168 C 85.285 314.944,85.600 314.469,85.600 314.113 C 85.600 313.758,85.718 313.584,85.861 313.728 C 86.005 313.872,86.545 313.417,87.061 312.717 C 87.578 312.017,88.000 311.561,88.000 311.704 C 88.000 311.847,88.492 311.477,89.094 310.882 C 89.696 310.287,90.191 309.591,90.194 309.335 C 90.200 308.887,85.549 303.540,83.700 301.869 C 83.205 301.422,82.800 300.808,82.800 300.504 C 82.800 300.201,82.620 300.064,82.400 300.200 C 82.180 300.336,82.000 300.240,82.000 299.988 C 82.000 299.543,80.755 298.020,78.900 296.194 C 78.405 295.707,77.997 295.149,77.993 294.954 C 77.989 294.759,77.543 294.180,77.001 293.666 C 76.460 293.152,75.349 291.622,74.533 290.266 C 73.717 288.910,72.925 287.710,72.773 287.600 C 72.114 287.122,67.936 280.801,66.917 278.739 C 65.511 275.894,65.018 275.583,63.100 276.327 M336.088 319.366 C 335.380 320.117,334.800 320.822,334.800 320.932 C 334.800 321.043,333.748 322.229,332.463 323.567 C 331.178 324.905,330.199 326.000,330.287 326.000 C 330.376 326.000,329.617 326.720,328.600 327.600 C 327.583 328.480,326.839 329.200,326.946 329.200 C 327.176 329.200,323.206 332.963,321.212 334.636 C 320.449 335.276,318.812 336.745,317.576 337.900 C 316.339 339.055,315.197 340.000,315.037 340.000 C 314.877 340.000,314.143 340.585,313.406 341.300 C 312.669 342.015,311.556 343.007,310.933 343.503 C 310.310 344.000,309.228 344.871,308.529 345.438 C 307.829 346.005,307.199 346.417,307.129 346.353 C 307.010 346.245,306.607 346.552,304.284 348.518 C 303.818 348.913,302.848 349.599,302.130 350.043 L 300.825 350.850 301.613 352.319 C 302.046 353.127,302.400 354.001,302.400 354.261 C 302.400 354.521,302.545 354.793,302.723 354.867 C 303.181 355.055,305.526 358.552,305.959 359.692 C 306.158 360.216,306.758 361.175,307.293 361.823 C 307.827 362.470,308.393 363.270,308.551 363.600 C 310.362 367.383,312.116 368.424,313.497 366.535 C 313.774 366.157,314.000 365.981,314.000 366.144 C 314.000 366.308,314.426 365.982,314.946 365.421 C 315.466 364.859,316.186 364.400,316.546 364.400 C 316.906 364.400,317.200 364.220,317.200 364.000 C 317.200 363.780,317.372 363.600,317.582 363.600 C 317.792 363.600,318.390 363.195,318.910 362.700 C 319.431 362.205,320.376 361.440,321.011 361.000 C 321.646 360.560,322.488 359.885,322.883 359.500 C 323.277 359.115,323.775 358.800,323.989 358.800 C 324.204 358.800,325.234 357.945,326.279 356.900 C 327.324 355.855,328.184 355.057,328.189 355.126 C 328.195 355.195,328.514 355.131,328.898 354.984 C 329.281 354.837,329.496 354.555,329.374 354.358 C 329.252 354.161,329.330 354.000,329.546 354.000 C 329.762 354.000,330.458 353.505,331.093 352.900 C 333.451 350.654,335.770 348.577,337.120 347.504 C 337.885 346.897,338.371 346.400,338.200 346.400 C 338.029 346.400,338.506 345.905,339.260 345.300 C 340.013 344.695,342.783 341.849,345.415 338.976 C 353.633 330.003,353.944 329.600,352.656 329.600 C 352.357 329.600,351.774 329.150,351.361 328.600 C 350.948 328.050,350.383 327.600,350.105 327.600 C 349.827 327.600,349.600 327.459,349.600 327.286 C 349.600 327.114,349.096 326.675,348.481 326.311 C 347.865 325.948,346.740 325.011,345.981 324.229 C 345.221 323.448,344.375 322.807,344.100 322.804 C 343.825 322.802,342.923 322.123,342.095 321.295 C 338.557 317.757,337.826 317.522,336.088 319.366 M276.400 332.000 C 276.400 332.220,276.152 332.400,275.849 332.400 C 275.546 332.400,275.076 332.668,274.804 332.996 C 274.532 333.323,274.150 333.493,273.955 333.372 C 273.760 333.251,273.600 333.315,273.600 333.512 C 273.600 333.959,271.600 334.992,270.429 335.150 C 270.224 335.178,269.819 335.425,269.529 335.700 C 269.238 335.975,268.550 336.410,268.000 336.667 C 267.450 336.924,265.920 337.635,264.600 338.248 C 263.280 338.861,262.110 339.461,262.000 339.581 C 261.890 339.702,261.457 339.859,261.037 339.932 C 260.618 340.005,259.862 340.334,259.358 340.664 C 258.854 340.994,258.343 341.250,258.221 341.232 C 257.494 341.126,257.180 341.244,257.370 341.551 C 257.543 341.831,255.986 342.375,254.994 342.382 C 254.883 342.383,254.232 342.673,253.548 343.027 C 252.863 343.381,251.830 343.755,251.252 343.859 C 250.673 343.963,249.480 344.380,248.600 344.786 C 246.644 345.688,243.079 346.993,242.785 346.914 C 241.840 346.662,238.212 348.388,238.300 349.049 C 238.580 351.140,239.367 354.000,239.664 354.000 C 239.849 354.000,239.970 354.135,239.933 354.300 C 239.828 354.768,240.368 357.496,241.260 361.000 C 241.708 362.760,242.134 364.470,242.207 364.800 C 242.279 365.130,242.374 365.490,242.417 365.600 C 242.460 365.710,242.486 365.897,242.475 366.016 C 242.447 366.328,244.961 366.277,245.200 365.962 C 245.310 365.816,246.840 365.305,248.600 364.825 C 250.360 364.346,253.330 363.357,255.200 362.627 C 257.070 361.897,259.590 360.993,260.800 360.618 C 262.010 360.244,263.399 359.681,263.886 359.368 C 264.373 359.056,265.138 358.800,265.586 358.800 C 266.034 358.800,266.400 358.634,266.400 358.432 C 266.400 358.230,267.298 357.766,268.395 357.402 C 269.493 357.037,270.485 356.586,270.600 356.400 C 270.715 356.214,271.707 355.763,272.805 355.398 C 273.902 355.034,274.800 354.560,274.800 354.344 C 274.800 354.129,274.980 354.064,275.200 354.200 C 275.420 354.336,275.600 354.257,275.600 354.024 C 275.600 353.791,275.870 353.600,276.200 353.600 C 276.530 353.600,276.800 353.420,276.800 353.200 C 276.800 352.980,276.935 352.836,277.100 352.881 C 277.265 352.925,278.165 352.562,279.100 352.073 C 280.035 351.584,280.803 351.322,280.806 351.492 C 280.809 351.661,280.944 351.620,281.106 351.400 C 281.480 350.891,282.642 350.173,284.300 349.426 C 285.015 349.104,285.600 348.641,285.600 348.397 C 285.600 348.153,285.744 348.042,285.919 348.150 C 286.095 348.258,286.490 348.192,286.797 348.002 C 287.378 347.643,286.234 344.800,285.509 344.800 C 285.339 344.800,285.200 344.592,285.200 344.338 C 285.200 344.084,284.750 343.286,284.200 342.564 C 283.650 341.843,283.200 341.061,283.200 340.827 C 283.200 340.592,283.009 340.400,282.776 340.400 C 282.543 340.400,282.457 340.231,282.585 340.025 C 282.712 339.818,282.588 339.503,282.308 339.325 C 282.028 339.146,281.533 338.460,281.208 337.800 C 280.883 337.140,280.118 335.974,279.508 335.209 C 278.899 334.444,278.400 333.617,278.400 333.371 C 278.400 332.901,277.128 331.600,276.669 331.600 C 276.521 331.600,276.400 331.780,276.400 332.000 M75.000 339.055 C 73.900 340.259,72.181 342.089,71.179 343.122 C 70.177 344.155,68.962 345.519,68.479 346.154 C 67.996 346.789,67.600 347.187,67.600 347.038 C 67.600 346.890,66.789 347.764,65.799 348.981 L 63.997 351.192 65.799 353.020 C 66.789 354.025,67.600 354.746,67.600 354.624 C 67.600 354.501,67.929 354.715,68.331 355.100 C 69.656 356.368,71.396 357.789,71.631 357.794 C 71.758 357.797,72.427 358.340,73.118 359.000 C 74.997 360.795,75.524 361.200,75.980 361.200 C 76.207 361.200,76.618 361.560,76.893 362.000 C 77.168 362.440,77.619 362.800,77.896 362.800 C 78.173 362.800,78.400 362.968,78.400 363.173 C 78.400 363.378,78.778 363.666,79.239 363.813 C 79.701 363.959,80.408 364.376,80.811 364.739 C 82.269 366.055,82.800 366.426,82.800 366.127 C 82.800 365.959,83.066 366.201,83.391 366.665 C 83.716 367.129,84.436 367.623,84.991 367.762 C 85.546 367.901,86.000 368.192,86.000 368.408 C 86.000 368.623,86.255 368.800,86.567 368.800 C 86.878 368.800,87.193 368.935,87.267 369.100 C 87.434 369.476,91.034 372.000,91.404 372.000 C 91.554 372.000,92.167 372.349,92.766 372.776 C 93.366 373.203,94.114 373.608,94.428 373.676 C 94.743 373.744,95.237 374.118,95.527 374.507 C 95.817 374.895,96.210 375.117,96.400 375.000 C 96.589 374.883,96.858 374.970,96.997 375.195 C 97.135 375.419,98.093 375.982,99.124 376.446 C 100.156 376.910,101.270 377.522,101.600 377.806 C 101.930 378.090,103.550 378.987,105.200 379.800 C 106.850 380.613,108.678 381.531,109.262 381.839 C 110.656 382.576,110.652 382.576,111.155 381.300 C 111.393 380.695,111.767 379.930,111.984 379.600 C 112.542 378.755,114.400 374.713,114.400 374.345 C 114.400 374.053,117.627 366.960,118.421 365.505 C 119.061 364.333,118.891 364.148,116.000 362.855 C 114.460 362.167,113.200 361.403,113.200 361.159 C 113.200 360.914,112.930 360.818,112.600 360.945 C 112.270 361.071,112.000 361.001,112.000 360.787 C 112.000 360.574,111.730 360.400,111.400 360.400 C 111.070 360.400,110.800 360.190,110.800 359.933 C 110.800 359.677,110.686 359.581,110.546 359.720 C 110.407 359.860,109.843 359.620,109.292 359.187 C 108.742 358.754,107.988 358.400,107.616 358.400 C 107.244 358.400,106.517 357.951,106.001 357.402 C 105.486 356.852,104.977 356.490,104.871 356.596 C 104.765 356.701,103.851 356.197,102.839 355.474 C 101.828 354.752,99.470 353.236,97.600 352.106 C 95.730 350.976,93.887 349.680,93.504 349.226 C 93.121 348.772,92.567 348.400,92.274 348.400 C 91.980 348.400,91.317 347.950,90.800 347.400 C 90.283 346.850,89.652 346.400,89.396 346.400 C 89.141 346.400,88.452 345.905,87.864 345.300 C 86.475 343.869,85.693 343.204,83.995 342.005 C 83.228 341.464,82.272 340.612,81.871 340.111 C 81.470 339.610,80.901 339.200,80.607 339.200 C 80.312 339.200,79.617 338.660,79.061 338.000 C 77.713 336.398,77.339 336.495,75.000 339.055 M128.123 369.072 C 127.973 369.473,127.605 369.983,127.307 370.208 C 127.008 370.432,126.734 371.017,126.697 371.508 C 126.660 371.998,126.502 372.400,126.347 372.400 C 126.191 372.400,125.939 372.985,125.787 373.700 C 125.635 374.415,125.282 375.270,125.003 375.600 C 124.723 375.930,124.362 376.650,124.200 377.200 C 124.038 377.750,123.651 378.490,123.340 378.845 C 122.815 379.445,122.383 380.715,122.301 381.900 C 122.282 382.175,122.117 382.400,121.933 382.400 C 121.750 382.400,121.594 382.715,121.587 383.100 C 121.580 383.485,121.310 384.149,120.987 384.576 C 119.773 386.182,120.685 387.413,123.800 388.369 C 124.680 388.640,125.670 388.964,126.000 389.091 C 126.330 389.217,126.852 389.372,127.160 389.434 C 127.468 389.496,127.870 389.784,128.054 390.073 C 128.237 390.363,128.391 390.443,128.394 390.251 C 128.397 390.059,128.658 390.116,128.972 390.377 C 129.287 390.638,130.097 390.868,130.772 390.887 C 131.448 390.906,132.000 391.062,132.000 391.234 C 132.000 391.578,133.355 392.084,134.600 392.203 C 135.040 392.245,135.670 392.387,136.000 392.519 C 138.178 393.387,142.827 394.811,143.725 394.886 C 144.316 394.934,144.800 395.126,144.800 395.311 C 144.800 395.496,144.968 395.544,145.172 395.417 C 145.377 395.291,145.645 395.349,145.767 395.547 C 145.890 395.746,146.847 396.032,147.895 396.184 C 150.303 396.534,154.751 397.561,155.800 398.011 C 156.240 398.199,157.140 398.451,157.800 398.570 C 160.386 399.036,161.849 399.270,163.000 399.402 C 163.660 399.477,164.650 399.643,165.200 399.770 C 165.750 399.897,167.595 400.115,169.300 400.254 C 172.801 400.540,172.378 400.989,172.589 396.759 C 172.639 395.746,172.806 394.715,172.959 394.467 C 173.112 394.218,173.215 393.247,173.187 392.308 C 173.158 391.368,173.228 389.700,173.342 388.600 C 173.935 382.865,174.003 380.849,173.614 380.609 C 173.386 380.468,173.197 380.588,173.194 380.876 C 173.189 381.302,173.125 381.301,172.851 380.869 C 172.666 380.577,172.264 380.382,171.957 380.436 C 171.651 380.490,170.770 380.417,170.000 380.274 C 169.230 380.131,168.060 379.932,167.400 379.832 C 166.740 379.732,164.310 379.285,162.000 378.839 C 159.690 378.393,157.350 377.951,156.800 377.855 C 156.250 377.760,155.350 377.486,154.800 377.245 C 153.913 376.858,148.522 375.376,144.274 374.352 C 143.435 374.150,142.355 373.745,141.874 373.454 C 141.393 373.162,139.830 372.605,138.400 372.217 C 135.816 371.516,134.435 371.030,133.105 370.353 C 132.723 370.159,132.151 370.000,131.834 370.000 C 131.517 370.000,131.011 369.754,130.710 369.453 C 129.715 368.458,128.425 368.268,128.123 369.072 " stroke="none" fill="#34c4f4" fill-rule="evenodd"></path><path id="path2" d="M47.675 65.616 C 47.194 66.064,46.800 66.546,46.800 66.685 C 46.800 66.825,47.250 66.517,47.800 66.000 C 48.738 65.119,48.971 64.800,48.675 64.800 C 48.607 64.800,48.157 65.167,47.675 65.616 M234.647 379.086 C 234.490 379.243,233.965 379.400,233.481 379.435 C 231.330 379.590,228.953 380.106,228.423 380.534 C 227.977 380.895,227.914 380.888,228.144 380.505 C 228.346 380.168,228.243 380.085,227.823 380.246 C 227.483 380.377,227.320 380.690,227.461 380.942 C 227.616 381.219,227.504 381.202,227.179 380.900 C 226.593 380.356,225.200 380.215,225.200 380.700 C 225.200 380.865,224.399 380.986,223.419 380.968 C 222.439 380.951,221.709 381.053,221.797 381.195 C 221.885 381.338,221.112 381.431,220.078 381.403 C 219.045 381.375,218.106 381.486,217.992 381.651 C 217.877 381.816,215.897 382.054,213.592 382.181 C 211.286 382.308,208.140 382.511,206.600 382.631 C 202.671 382.937,190.987 382.913,189.990 382.597 C 189.517 382.447,188.880 382.563,188.504 382.867 C 188.033 383.249,187.932 383.258,188.147 382.900 C 188.373 382.524,187.904 382.400,186.262 382.400 L 184.077 382.400 184.061 384.463 C 184.052 385.597,183.869 386.634,183.654 386.767 C 183.438 386.900,183.242 387.997,183.217 389.204 C 183.086 395.597,182.984 397.200,182.706 397.200 C 182.538 397.200,182.413 397.605,182.428 398.100 C 182.455 398.959,182.472 398.964,182.802 398.200 C 183.104 397.502,183.140 397.536,183.089 398.471 C 183.057 399.060,182.894 399.458,182.727 399.355 C 182.560 399.252,182.447 399.804,182.476 400.584 L 182.530 402.000 197.798 402.000 C 206.196 402.000,213.187 401.880,213.334 401.733 C 213.480 401.586,214.815 401.430,216.300 401.385 C 217.785 401.341,220.170 401.171,221.600 401.009 C 223.030 400.846,224.740 400.659,225.400 400.591 C 226.936 400.435,227.683 400.251,228.272 399.882 C 228.532 399.720,228.860 399.773,229.000 400.000 C 229.140 400.227,229.468 400.282,229.727 400.121 C 229.987 399.961,230.695 399.881,231.300 399.945 C 231.905 400.008,232.400 399.872,232.400 399.643 C 232.400 399.413,232.661 399.325,232.981 399.448 C 233.300 399.571,233.784 399.533,234.057 399.365 C 234.329 399.197,235.254 399.029,236.113 398.993 C 236.972 398.956,237.835 398.673,238.031 398.363 C 238.284 397.964,238.390 397.946,238.394 398.300 C 238.402 398.967,239.388 398.937,239.956 398.253 C 240.301 397.837,240.266 397.587,239.809 397.208 C 239.479 396.934,239.312 396.542,239.439 396.337 C 239.565 396.132,239.456 395.709,239.197 395.396 C 238.937 395.083,238.802 394.596,238.897 394.313 C 238.992 394.031,238.784 393.562,238.435 393.270 C 238.086 392.979,238.025 392.855,238.300 392.994 C 238.636 393.164,238.800 392.911,238.800 392.224 C 238.800 391.661,238.617 391.200,238.392 391.200 C 238.157 391.200,238.091 390.777,238.236 390.200 C 238.396 389.561,238.318 389.200,238.020 389.200 C 237.763 389.200,237.664 389.019,237.801 388.799 C 238.136 388.257,236.756 381.200,236.314 381.200 C 236.122 381.200,235.994 380.975,236.030 380.700 C 236.243 379.056,235.521 378.213,234.647 379.086 " stroke="none" fill="#3cbcec" fill-rule="evenodd"></path><path id="path3" d="M196.900 337.491 C 197.725 337.578,199.075 337.578,199.900 337.491 C 200.725 337.405,200.050 337.334,198.400 337.334 C 196.750 337.334,196.075 337.405,196.900 337.491 " stroke="none" fill="#88c8f0" fill-rule="evenodd"></path><path id="path4" d="" stroke="none" fill="#34d0f0" fill-rule="evenodd"></path><path id="path5" d="M191.300 29.076 C 191.685 29.176,192.315 29.176,192.700 29.076 C 193.085 28.975,192.770 28.893,192.000 28.893 C 191.230 28.893,190.915 28.975,191.300 29.076 M195.913 29.095 C 197.076 29.176,198.876 29.176,199.913 29.093 C 200.951 29.011,200.000 28.945,197.800 28.946 C 195.600 28.947,194.751 29.014,195.913 29.095 M202.900 29.076 C 203.285 29.176,203.915 29.176,204.300 29.076 C 204.685 28.975,204.370 28.893,203.600 28.893 C 202.830 28.893,202.515 28.975,202.900 29.076 M28.893 206.800 C 28.893 207.570,28.975 207.885,29.076 207.500 C 29.176 207.115,29.176 206.485,29.076 206.100 C 28.975 205.715,28.893 206.030,28.893 206.800 " stroke="none" fill="#34c8f0" fill-rule="evenodd"></path><path id="path6" d="M191.300 29.076 C 191.685 29.176,192.315 29.176,192.700 29.076 C 193.085 28.975,192.770 28.893,192.000 28.893 C 191.230 28.893,190.915 28.975,191.300 29.076 M195.913 29.095 C 197.076 29.176,198.876 29.176,199.913 29.093 C 200.951 29.011,200.000 28.945,197.800 28.946 C 195.600 28.947,194.751 29.014,195.913 29.095 M202.900 29.076 C 203.285 29.176,203.915 29.176,204.300 29.076 C 204.685 28.975,204.370 28.893,203.600 28.893 C 202.830 28.893,202.515 28.975,202.900 29.076 M28.893 206.800 C 28.893 207.570,28.975 207.885,29.076 207.500 C 29.176 207.115,29.176 206.485,29.076 206.100 C 28.975 205.715,28.893 206.030,28.893 206.800 " stroke="none" fill="#34c8f0" fill-rule="evenodd"></path><path id="path7" d="M191.300 29.076 C 191.685 29.176,192.315 29.176,192.700 29.076 C 193.085 28.975,192.770 28.893,192.000 28.893 C 191.230 28.893,190.915 28.975,191.300 29.076 M195.913 29.095 C 197.076 29.176,198.876 29.176,199.913 29.093 C 200.951 29.011,200.000 28.945,197.800 28.946 C 195.600 28.947,194.751 29.014,195.913 29.095 M202.900 29.076 C 203.285 29.176,203.915 29.176,204.300 29.076 C 204.685 28.975,204.370 28.893,203.600 28.893 C 202.830 28.893,202.515 28.975,202.900 29.076 M28.893 206.800 C 28.893 207.570,28.975 207.885,29.076 207.500 C 29.176 207.115,29.176 206.485,29.076 206.100 C 28.975 205.715,28.893 206.030,28.893 206.800 " stroke="none" fill="#34c8f0" fill-rule="evenodd"></path><path id="path8" d="M191.300 29.076 C 191.685 29.176,192.315 29.176,192.700 29.076 C 193.085 28.975,192.770 28.893,192.000 28.893 C 191.230 28.893,190.915 28.975,191.300 29.076 M195.913 29.095 C 197.076 29.176,198.876 29.176,199.913 29.093 C 200.951 29.011,200.000 28.945,197.800 28.946 C 195.600 28.947,194.751 29.014,195.913 29.095 M202.900 29.076 C 203.285 29.176,203.915 29.176,204.300 29.076 C 204.685 28.975,204.370 28.893,203.600 28.893 C 202.830 28.893,202.515 28.975,202.900 29.076 M28.893 206.800 C 28.893 207.570,28.975 207.885,29.076 207.500 C 29.176 207.115,29.176 206.485,29.076 206.100 C 28.975 205.715,28.893 206.030,28.893 206.800 " stroke="none" fill="#34c8f0" fill-rule="evenodd"></path></g></svg>