<?xml version="1.0" standalone="no"?>
<!DOCTYPE svg PUBLIC "-//W3C//DTD SVG 20010904//EN"
 "http://www.w3.org/TR/2001/REC-SVG-20010904/DTD/svg10.dtd">
<svg version="1.0" xmlns="http://www.w3.org/2000/svg"
 width="2289.000000pt" height="509.000000pt" viewBox="0 0 2289.000000 509.000000"
 preserveAspectRatio="xMidYMid meet">
<metadata>
Created by potrace 1.15, written by Peter Selinger 2001-2017
</metadata>
<g transform="translate(0.000000,509.000000) scale(0.100000,-0.100000)"
fill="#000000" stroke="none">
<path d="M1085 4596 c-57 -75 -132 -344 -155 -556 -6 -58 -15 -109 -20 -115
-15 -20 -65 -422 -75 -615 -4 -63 -11 -130 -15 -148 -5 -19 -17 -133 -26 -253
-15 -186 -20 -218 -31 -206 -11 11 -11 20 -3 42 16 42 5 70 -35 89 -39 19 -92
14 -135 -12 -41 -25 -50 -43 -50 -98 0 -42 5 -59 26 -83 33 -39 100 -79 162
-96 l47 -13 -57 -1 c-47 -1 -60 -5 -72 -23 -21 -30 -20 -42 8 -75 24 -28 24
-29 5 -52 -26 -31 -24 -57 6 -87 21 -21 23 -28 13 -49 -14 -32 2 -72 34 -85
l23 -9 -22 0 c-46 -2 -69 -54 -37 -85 13 -13 13 -16 1 -16 -19 0 -46 -32 -56
-67 -12 -42 16 -102 59 -127 20 -11 60 -21 101 -24 l67 -5 -10 -30 c-8 -22 -8
-47 1 -92 10 -51 10 -66 -1 -84 -20 -33 -28 -25 -28 27 0 83 -50 119 -124 88
-29 -12 -42 -27 -62 -71 -31 -66 -26 -103 17 -139 35 -29 78 -40 172 -40 69 0
79 -6 50 -30 -10 -8 -33 -27 -50 -41 -20 -16 -33 -36 -33 -50 0 -26 37 -55 72
-55 16 -1 32 -14 51 -45 18 -28 36 -45 48 -45 21 0 44 31 54 72 5 20 15 28 41
33 43 8 68 42 55 76 -12 32 -40 56 -73 64 -48 12 -31 20 45 20 93 1 158 20
193 56 23 24 26 34 21 70 -10 77 -115 157 -169 128 -33 -17 -38 -28 -38 -81 0
-50 -9 -59 -30 -33 -10 12 -10 24 0 60 7 27 10 68 7 100 l-6 55 32 0 c18 0 42
3 55 6 19 5 22 2 22 -20 0 -21 9 -30 50 -51 48 -25 103 -32 127 -17 6 4 17 20
23 36 l11 29 43 -59 c58 -79 136 -151 194 -176 99 -45 196 -15 228 69 15 38
15 47 2 88 l-15 46 26 -17 c14 -9 37 -26 51 -38 41 -37 78 -56 105 -56 16 0
28 -7 31 -17 3 -10 10 -27 14 -38 33 -77 45 -349 18 -400 -34 -64 -54 -74
-163 -78 -147 -7 -206 -40 -221 -126 -4 -20 -11 -41 -16 -48 -5 -7 -10 -34
-11 -60 l-2 -48 42 -3 c25 -2 55 4 74 13 29 16 33 16 41 1 13 -22 84 -21 131
3 37 19 38 19 48 0 9 -18 24 -19 263 -19 l254 0 31 35 c39 45 40 85 5 182 -35
96 -30 110 52 152 37 19 82 49 99 67 36 36 71 115 62 139 -12 30 -143 12 -252
-35 -31 -13 -45 -16 -42 -8 3 7 16 43 28 79 22 66 23 67 63 73 79 13 381 106
411 126 6 4 28 13 50 20 22 7 58 23 80 35 22 13 74 41 115 62 41 22 115 63
164 91 49 29 91 52 93 52 2 0 -1 -9 -7 -19 -36 -69 16 -194 130 -312 14 -15
43 -48 65 -75 l40 -48 0 -116 c0 -95 -4 -128 -25 -192 -27 -85 -26 -84 -99
-51 -19 9 -62 15 -98 16 -52 0 -71 -5 -103 -27 -63 -41 -117 -145 -108 -206 3
-22 8 -25 40 -24 23 1 54 12 78 28 41 27 55 32 46 17 -11 -16 5 -39 31 -46 50
-12 106 4 131 38 17 23 22 26 18 11 -4 -14 -1 -28 9 -38 14 -13 42 -16 173
-16 86 0 168 3 181 7 14 4 30 21 41 47 17 37 18 38 13 10 -11 -67 39 -94 107
-59 27 14 30 14 30 0 0 -12 12 -15 54 -15 29 0 67 5 84 11 24 8 35 7 54 -5 17
-11 55 -16 138 -18 l114 -3 10 30 c6 17 10 31 11 32 0 1 27 -7 60 -18 78 -27
182 -23 222 7 27 20 28 25 26 100 0 44 -7 113 -14 156 -11 72 -11 78 9 117 12
23 22 46 22 52 0 6 -17 27 -37 47 l-38 36 54 8 c71 11 148 54 183 102 30 42
36 70 16 82 -7 5 -43 9 -81 10 -119 5 -174 50 -198 162 -23 110 -1 193 151
572 74 186 100 289 100 399 0 126 -43 215 -131 272 -27 17 -49 32 -49 34 0 1
15 27 33 58 74 123 105 287 72 386 -44 134 -194 241 -390 278 -162 30 -206 35
-325 35 -94 1 -135 -3 -164 -16 -72 -30 -233 -58 -274 -47 -52 15 -117 59
-183 125 -31 31 -63 56 -72 56 -11 0 -19 -17 -27 -57 -7 -32 -13 -62 -15 -68
-3 -15 -45 71 -45 92 0 10 11 37 25 61 13 23 22 49 19 57 -13 34 -136 47 -188
20 -15 -8 -30 -15 -32 -15 -9 0 45 97 60 109 34 29 150 -16 228 -87 45 -41 58
-26 58 70 l0 83 35 -50 c19 -28 46 -67 60 -87 14 -21 31 -38 39 -38 7 0 16 -9
19 -20 4 -16 13 -20 49 -20 23 0 62 9 84 19 34 15 45 28 59 65 l18 46 31 -39
c70 -87 185 -151 272 -151 39 0 46 14 29 56 l-13 31 88 -48 c123 -69 190 -91
280 -93 83 -1 121 13 152 55 43 57 28 170 -26 198 -25 14 -71 17 -102 7 -26
-8 -74 -77 -74 -106 0 -11 -4 -20 -9 -20 -5 0 -47 23 -93 52 -122 75 -234 137
-313 173 -38 18 -99 46 -135 63 -36 16 -90 38 -120 47 -30 9 -63 21 -73 26
-33 18 -182 49 -262 55 -88 7 -185 -11 -265 -47 -135 -62 -170 -83 -223 -134
-95 -93 -124 -177 -113 -330 6 -88 5 -92 -18 -114 -33 -31 -50 -98 -44 -179 8
-97 50 -174 81 -143 5 5 28 46 50 92 31 62 51 89 75 103 l32 18 53 -39 c61
-47 113 -74 182 -96 207 -67 555 -63 735 8 235 92 320 89 412 -13 59 -65 78
-121 78 -223 l0 -89 -32 0 c-38 0 -111 19 -183 48 -123 49 -180 57 -290 42
-44 -6 -111 -15 -150 -19 -61 -8 -198 -37 -401 -86 -33 -8 -71 -15 -85 -15
-13 0 -55 -6 -94 -14 -38 -8 -141 -24 -229 -36 -87 -11 -167 -25 -177 -30 -10
-6 -35 -10 -57 -10 -36 0 -39 2 -35 24 6 31 -24 123 -42 130 -8 3 -11 13 -8
25 3 11 -2 41 -11 67 -20 59 -20 54 8 54 34 0 38 19 30 143 -5 84 -4 108 5
103 6 -4 18 -2 26 4 31 26 9 216 -31 278 -15 22 -13 25 29 62 48 43 71 88 82
163 10 63 -4 67 -91 27 -39 -18 -94 -34 -126 -37 l-57 -6 -15 38 c-26 62 -139
165 -182 165 -19 0 -22 -6 -26 -68 -3 -37 -10 -77 -17 -89 -11 -21 -14 -19
-74 42 -63 64 -117 91 -170 83 -20 -3 -22 -10 -27 -86 -5 -78 -7 -86 -35 -109
-22 -19 -30 -22 -34 -12 -9 31 -67 92 -98 105 -18 8 -48 14 -68 14 -99 0 -206
-98 -127 -116 37 -9 112 -46 112 -56 0 -4 -8 -8 -19 -8 -26 0 -264 -60 -276
-70 -5 -5 -26 -11 -46 -15 -35 -6 -36 -5 -32 17 3 15 -3 34 -15 48 -18 23 -28
25 -95 25 -61 0 -79 -4 -97 -20 -32 -29 -41 -60 -31 -107 15 -66 113 -193 174
-225 27 -13 31 -13 66 10 l38 25 43 -60 c33 -48 53 -65 96 -84 86 -38 114 -31
114 29 0 19 3 18 35 -13 l36 -35 -38 -13 c-48 -17 -305 -10 -437 12 -49 8 -93
13 -98 10 -16 -10 -8 -46 18 -80 l27 -34 -24 2 c-29 4 -38 -32 -16 -65 14 -21
37 -131 37 -176 0 -13 -19 -41 -45 -68 -65 -66 -58 -103 20 -103 41 0 111 36
161 82 l22 19 -15 -71 c-8 -39 -12 -78 -9 -86 17 -45 101 26 121 103 13 47 13
47 20 18 12 -53 23 -72 58 -99 44 -34 67 -26 67 23 1 29 3 33 11 19 22 -39
100 -7 134 55 11 21 24 36 30 34 5 -2 11 -35 13 -74 l3 -71 -35 -12 c-35 -11
-180 -105 -271 -174 -183 -140 -272 -285 -277 -454 l-2 -74 -29 63 c-35 79
-90 147 -133 165 -18 8 -59 14 -90 14 -48 0 -59 -4 -76 -26 l-20 -25 -15 21
c-8 12 -25 25 -37 30 -21 9 -20 9 3 9 36 1 109 42 142 79 48 54 37 135 -23
172 -37 22 -103 27 -115 8 -4 -7 -10 -35 -13 -63 -24 -206 -24 1110 0 1485 5
91 17 215 26 277 9 62 13 117 9 123 -12 19 -34 10 -60 -24z m3338 -2845 c54
-58 60 -87 64 -322 4 -226 -2 -269 -35 -269 -11 0 -50 11 -88 25 -82 30 -128
31 -186 6 -46 -20 -76 -48 -101 -96 -24 -44 -20 -23 12 79 16 50 32 114 36
143 6 48 10 54 54 82 56 36 140 131 143 162 2 16 -5 27 -22 36 -29 15 -62 10
-142 -22 -32 -13 -58 -20 -58 -16 0 5 7 28 16 52 30 85 64 249 64 310 l0 61
108 -101 c59 -55 119 -113 135 -130z"/>
<path d="M5855 3939 c-16 -16 -33 -29 -37 -29 -5 0 -8 -8 -8 -18 0 -11 -77
-80 -202 -182 -111 -91 -207 -171 -215 -178 -10 -10 -13 -54 -13 -178 l0 -164
-39 0 c-22 0 -44 6 -51 15 -25 30 -93 16 -95 -20 -1 -5 -5 -27 -9 -48 -10 -43
6 -92 35 -107 10 -6 48 -7 88 -4 l69 7 5 -799 c5 -861 7 -898 60 -1066 37
-115 108 -230 171 -272 79 -55 127 -69 241 -69 90 -1 106 2 160 28 109 52 203
169 272 338 54 136 43 267 -23 267 -29 0 -34 -12 -70 -149 -13 -51 -36 -116
-52 -144 -53 -98 -141 -167 -213 -167 l-29 0 0 1015 0 1015 112 0 c88 0 115
-3 129 -16 23 -21 73 -10 94 19 24 34 20 128 -6 162 l-22 27 -155 -4 -155 -3
7 357 c7 333 5 399 -12 397 -4 0 -20 -13 -37 -30z"/>
<path d="M9417 3943 c-3 -16 -1 -33 4 -39 8 -10 6 -2904 -2 -3001 -1 -18 -1
-34 2 -36 2 -2 122 -2 267 1 l262 5 0 865 0 865 46 86 c43 81 107 182 129 207
6 6 30 34 54 62 36 43 49 52 76 52 18 0 38 -6 44 -14 13 -15 10 -2027 -3
-2081 -3 -16 -3 -35 1 -41 6 -8 86 -10 271 -6 l262 5 0 922 c0 782 -2 936 -15
1011 -20 114 -39 174 -80 249 -32 58 -113 145 -134 145 -6 0 -11 4 -11 8 0 34
-244 51 -307 22 -18 -8 -33 -18 -33 -22 0 -5 -7 -8 -15 -8 -8 0 -14 -3 -13 -7
1 -5 -38 -49 -88 -98 -56 -57 -106 -119 -134 -168 -25 -42 -47 -77 -50 -77 -3
0 -4 252 -2 560 l3 560 -264 0 -265 0 -5 -27z"/>
<path d="M11213 3955 c-3 -9 0 -42 6 -73 9 -43 11 -418 8 -1492 -3 -789 -8
-1456 -12 -1481 l-7 -46 264 5 c144 2 264 5 265 6 1 1 5 3043 4 3079 -1 16
-20 17 -261 17 -226 0 -261 -2 -267 -15z"/>
<path d="M15594 3934 c-4 -22 -2 -40 5 -47 15 -15 16 -2923 1 -2932 -12 -7
-13 -65 -2 -82 6 -9 69 -10 266 -5 l258 7 0 600 -1 600 40 -155 c22 -85 53
-218 69 -295 16 -77 64 -280 107 -452 l77 -311 270 5 c149 3 273 7 275 9 2 2
-1 20 -7 41 -38 137 -135 513 -272 1055 l-158 628 150 212 c82 117 159 230
169 251 20 38 30 152 15 175 -11 18 -61 14 -78 -5 -8 -10 -32 -49 -53 -88 -34
-62 -103 -171 -127 -199 -5 -6 -29 -38 -54 -71 -24 -33 -57 -75 -72 -93 -15
-18 -37 -52 -50 -75 -13 -23 -31 -49 -40 -57 -9 -9 -23 -27 -31 -40 -20 -36
-212 -300 -223 -306 -5 -4 -8 331 -6 830 l3 836 -262 0 -262 0 -7 -36z"/>
<path d="M19675 3948 c-3 -13 -4 -711 -3 -1553 l3 -1530 260 4 c143 2 261 4
262 5 2 1 3 697 3 1547 l1 1544 -260 3 -261 2 -5 -22z"/>
<path d="M20576 3954 c-10 -26 -7 -3082 3 -3088 5 -3 124 -3 265 1 l256 6 1
596 1 596 25 -105 c77 -329 141 -595 200 -832 l67 -268 270 6 c149 4 273 9
276 11 2 2 -5 32 -17 66 -12 34 -58 204 -102 377 -44 173 -134 528 -200 787
-67 260 -121 480 -121 488 0 9 68 110 150 225 173 240 193 278 187 354 -5 65
-11 76 -46 76 -35 0 -35 0 -111 -133 -53 -94 -174 -265 -331 -469 -24 -31 -52
-67 -61 -80 -92 -128 -127 -180 -151 -220 -15 -27 -30 -48 -33 -48 -3 0 -4
375 -4 833 l2 832 -260 3 c-230 2 -260 1 -266 -14z"/>
<path d="M7000 3240 c-19 -5 -47 -12 -62 -15 -15 -4 -25 -12 -22 -19 2 -6 -22
-27 -53 -46 -128 -76 -264 -252 -333 -432 -77 -200 -120 -457 -120 -720 0
-360 78 -653 235 -888 101 -151 176 -217 310 -271 51 -20 76 -24 165 -23 225
1 374 102 515 350 41 71 45 85 45 145 0 71 -22 118 -51 107 -8 -3 -38 -51 -67
-107 -29 -55 -71 -123 -93 -151 -51 -64 -144 -133 -209 -155 -93 -31 -274 -16
-283 24 -2 9 1 30 5 46 5 17 8 199 7 405 0 206 -1 392 0 413 l1 37 384 0 c286
0 387 3 392 12 14 22 16 211 5 351 -28 356 -146 652 -326 820 -22 20 -46 37
-52 37 -7 0 -13 5 -13 10 0 6 -6 10 -14 10 -8 0 -16 4 -18 8 -1 4 -25 19 -53
32 -41 19 -69 24 -155 26 -58 2 -121 -1 -140 -6z m273 -194 l37 -16 -2 -458
-3 -457 -160 -3 -160 -2 0 470 0 471 25 5 c14 3 30 8 35 10 25 10 193 -5 228
-20z"/>
<path d="M8555 3243 c-16 -2 -34 -9 -39 -14 -6 -5 -18 -9 -28 -9 -10 0 -18 -7
-18 -16 0 -11 -6 -14 -22 -9 -15 4 -19 3 -10 -3 10 -6 3 -15 -26 -35 -278
-184 -442 -593 -442 -1105 0 -384 71 -678 223 -930 87 -145 173 -221 309 -274
41 -16 77 -21 163 -21 114 -1 158 8 246 53 60 31 170 140 212 211 32 55 37 72
37 125 0 47 -5 66 -21 85 -12 14 -23 19 -27 13 -167 -238 -275 -315 -444 -315
-42 -1 -84 3 -93 8 -15 9 -16 95 -13 969 1 527 2 987 2 1021 l0 62 44 7 c103
15 212 -13 305 -78 30 -22 147 -164 147 -180 0 -20 55 -2 67 22 19 37 15 119
-7 165 -28 59 -137 165 -169 165 -6 0 -11 5 -11 10 0 6 -7 10 -15 10 -8 0 -15
5 -15 10 0 6 -9 10 -20 10 -11 0 -20 3 -20 8 0 25 -221 50 -315 35z"/>
<path d="M12590 3243 c-19 -2 -39 -9 -44 -14 -6 -5 -20 -9 -32 -9 -13 0 -26
-4 -29 -10 -3 -5 -15 -10 -26 -10 -10 0 -19 -4 -19 -10 0 -5 -7 -10 -15 -10
-8 0 -15 -4 -15 -10 0 -5 -9 -10 -20 -10 -11 0 -20 -4 -20 -10 0 -5 -11 -12
-25 -16 -13 -3 -23 -11 -22 -18 1 -6 -4 -10 -11 -8 -8 1 -11 -1 -8 -6 3 -5 -6
-20 -21 -33 -82 -76 -110 -192 -58 -244 33 -34 56 -31 85 11 26 37 64 83 113
136 15 16 58 44 95 61 62 28 76 31 177 31 94 1 119 -3 168 -23 l57 -23 0 -294
c0 -291 -4 -329 -32 -269 -6 14 -17 25 -25 25 -7 0 -13 5 -13 10 0 6 -9 10
-21 10 -13 0 -18 4 -13 11 5 9 -1 10 -20 5 -20 -5 -26 -3 -26 10 0 12 -6 14
-31 9 -23 -5 -29 -4 -24 4 6 11 -35 10 -178 -5 -72 -7 -128 -31 -213 -91 -133
-92 -233 -278 -275 -513 -19 -106 -17 -390 4 -506 28 -152 83 -311 132 -380
108 -151 233 -218 405 -217 80 0 104 4 152 26 76 34 125 73 151 122 l22 40 5
-75 5 -75 58 0 c31 1 147 2 258 3 l200 2 -4 823 c-3 715 -6 835 -20 921 -26
149 -85 309 -144 385 -40 53 -146 151 -169 157 -13 3 -24 10 -24 15 0 5 -9 9
-20 9 -11 0 -20 5 -20 10 0 6 -7 10 -15 10 -8 0 -23 4 -33 9 -51 25 -100 33
-227 36 -77 2 -156 1 -175 -2z m84 -885 c-5 -8 3 -9 29 -5 28 4 37 2 37 -9 0
-10 7 -13 23 -9 15 4 42 -6 87 -33 l65 -40 3 -530 2 -530 -39 -50 c-68 -86
-169 -147 -251 -154 l-45 -3 -3 674 c-1 489 1 678 9 687 14 17 94 19 83 2z"/>
<path d="M14701 3243 c-58 -12 -175 -97 -226 -164 -14 -18 -107 -174 -128
-214 -15 -28 -16 -19 -17 163 l0 192 -260 -2 -260 -3 -2 -1179 -3 -1179 104 7
c57 3 175 6 263 6 l158 0 0 855 0 855 30 68 c37 80 130 237 162 272 64 71 116
87 156 49 l22 -20 -4 -997 c-2 -548 -6 -1017 -8 -1042 l-3 -45 260 4 c143 2
264 7 268 11 5 4 7 410 4 901 -4 743 -7 913 -20 1004 -18 123 -42 202 -86 279
-30 52 -110 136 -130 136 -6 0 -11 4 -11 8 0 25 -196 51 -269 35z"/>
<path d="M17635 3240 c-22 -5 -55 -12 -72 -16 -18 -3 -33 -10 -33 -15 0 -5 -7
-9 -15 -9 -15 0 -55 -19 -65 -31 -3 -3 -17 -9 -32 -12 -36 -9 -154 -124 -172
-169 -20 -48 -21 -142 -1 -161 8 -8 11 -17 8 -21 -3 -3 10 -1 28 4 19 5 45 24
59 41 89 114 131 147 235 190 50 20 77 24 165 24 88 0 115 -4 163 -24 l57 -23
-2 -294 -3 -293 -35 21 c-103 63 -182 85 -312 90 -47 2 -82 0 -76 -3 5 -3 -1
-9 -13 -12 -13 -3 -29 -1 -36 5 -10 8 -12 7 -8 -3 6 -17 -49 -44 -66 -33 -7 4
-9 3 -6 -2 3 -6 -12 -21 -34 -34 -21 -14 -39 -28 -39 -32 0 -4 -7 -4 -17 -1
-10 4 -14 2 -10 -4 7 -12 -69 -109 -82 -106 -4 1 -8 -3 -8 -10 0 -7 -20 -55
-45 -107 -25 -52 -50 -113 -56 -135 -83 -323 -62 -664 57 -928 49 -109 99
-167 203 -237 80 -52 147 -72 248 -73 130 -2 215 32 306 121 l23 22 6 -37 c4
-21 7 -45 8 -53 2 -16 7 -17 343 -12 l176 2 -5 803 c-4 884 -6 916 -68 1102
-35 104 -72 173 -140 257 -27 33 -46 65 -43 69 3 5 0 9 -7 9 -6 0 -17 6 -23
14 -14 18 -123 76 -142 76 -8 0 -14 5 -14 10 0 6 -13 10 -28 10 -15 0 -33 5
-39 11 -15 15 -282 21 -338 9z m73 -882 c2 -4 17 -8 33 -8 16 0 37 -4 47 -9 9
-5 42 -21 74 -36 101 -48 94 0 89 -540 -2 -349 0 -482 9 -509 10 -32 9 -40 -9
-69 -33 -54 -127 -136 -183 -162 -29 -13 -73 -25 -98 -27 l-45 -3 -3 693 -2
692 42 -6 c24 -4 45 -11 46 -16z"/>
<path d="M18963 1718 c-62 -29 -156 -134 -176 -195 -54 -165 -42 -416 27 -551
53 -104 114 -145 217 -146 86 -1 145 33 204 120 101 147 112 428 26 618 -68
150 -184 210 -298 154z"/>
</g>
</svg>
